<mxfile host="app.diagrams.net" modified="2021-07-05T17:15:13.354Z" agent="5.0 (Macintosh; Intel Mac OS X 10_15_7) AppleWebKit/537.36 (KHTML, like Gecko) Chrome/91.0.4472.114 Safari/537.36" etag="VLxt3_nmATfyABMtHoZM" version="14.8.4" type="github">
  <diagram id="XNRkaBiXsyWEyUrm7EnX" name="Page-1">
    <mxGraphModel dx="1209" dy="680" grid="1" gridSize="10" guides="1" tooltips="1" connect="1" arrows="1" fold="1" page="1" pageScale="1" pageWidth="827" pageHeight="1169" math="0" shadow="0">
      <root>
        <mxCell id="0" />
        <mxCell id="1" parent="0" />
        <mxCell id="9Mq8vIHb-vWuUOVEYLkd-14" value="" style="shape=table;html=1;whiteSpace=wrap;startSize=0;container=1;collapsible=0;childLayout=tableLayout;" vertex="1" parent="1">
          <mxGeometry x="200" y="190" width="180" height="120" as="geometry" />
        </mxCell>
        <mxCell id="9Mq8vIHb-vWuUOVEYLkd-15" value="" style="shape=partialRectangle;html=1;whiteSpace=wrap;collapsible=0;dropTarget=0;pointerEvents=0;fillColor=none;top=0;left=0;bottom=0;right=0;points=[[0,0.5],[1,0.5]];portConstraint=eastwest;" vertex="1" parent="9Mq8vIHb-vWuUOVEYLkd-14">
          <mxGeometry width="180" height="40" as="geometry" />
        </mxCell>
        <mxCell id="9Mq8vIHb-vWuUOVEYLkd-16" value="ES" style="shape=partialRectangle;html=1;whiteSpace=wrap;connectable=0;fillColor=none;top=0;left=0;bottom=0;right=0;overflow=hidden;" vertex="1" parent="9Mq8vIHb-vWuUOVEYLkd-15">
          <mxGeometry width="60" height="40" as="geometry" />
        </mxCell>
        <mxCell id="9Mq8vIHb-vWuUOVEYLkd-17" value="D" style="shape=partialRectangle;html=1;whiteSpace=wrap;connectable=0;fillColor=none;top=0;left=0;bottom=0;right=0;overflow=hidden;" vertex="1" parent="9Mq8vIHb-vWuUOVEYLkd-15">
          <mxGeometry x="60" width="60" height="40" as="geometry" />
        </mxCell>
        <mxCell id="9Mq8vIHb-vWuUOVEYLkd-18" value="EF" style="shape=partialRectangle;html=1;whiteSpace=wrap;connectable=0;fillColor=none;top=0;left=0;bottom=0;right=0;overflow=hidden;" vertex="1" parent="9Mq8vIHb-vWuUOVEYLkd-15">
          <mxGeometry x="120" width="60" height="40" as="geometry" />
        </mxCell>
        <mxCell id="9Mq8vIHb-vWuUOVEYLkd-19" value="" style="shape=partialRectangle;html=1;whiteSpace=wrap;collapsible=0;dropTarget=0;pointerEvents=0;fillColor=none;top=0;left=0;bottom=0;right=0;points=[[0,0.5],[1,0.5]];portConstraint=eastwest;" vertex="1" parent="9Mq8vIHb-vWuUOVEYLkd-14">
          <mxGeometry y="40" width="180" height="40" as="geometry" />
        </mxCell>
        <mxCell id="9Mq8vIHb-vWuUOVEYLkd-20" value="" style="shape=partialRectangle;html=1;whiteSpace=wrap;connectable=0;fillColor=none;top=0;left=0;bottom=0;right=0;overflow=hidden;" vertex="1" parent="9Mq8vIHb-vWuUOVEYLkd-19">
          <mxGeometry width="60" height="40" as="geometry" />
        </mxCell>
        <mxCell id="9Mq8vIHb-vWuUOVEYLkd-21" value="Task" style="shape=partialRectangle;html=1;whiteSpace=wrap;connectable=0;fillColor=none;top=0;left=0;bottom=0;right=0;overflow=hidden;" vertex="1" parent="9Mq8vIHb-vWuUOVEYLkd-19">
          <mxGeometry x="60" width="60" height="40" as="geometry" />
        </mxCell>
        <mxCell id="9Mq8vIHb-vWuUOVEYLkd-22" value="" style="shape=partialRectangle;html=1;whiteSpace=wrap;connectable=0;fillColor=none;top=0;left=0;bottom=0;right=0;overflow=hidden;" vertex="1" parent="9Mq8vIHb-vWuUOVEYLkd-19">
          <mxGeometry x="120" width="60" height="40" as="geometry" />
        </mxCell>
        <mxCell id="9Mq8vIHb-vWuUOVEYLkd-23" value="" style="shape=partialRectangle;html=1;whiteSpace=wrap;collapsible=0;dropTarget=0;pointerEvents=0;fillColor=none;top=0;left=0;bottom=0;right=0;points=[[0,0.5],[1,0.5]];portConstraint=eastwest;" vertex="1" parent="9Mq8vIHb-vWuUOVEYLkd-14">
          <mxGeometry y="80" width="180" height="40" as="geometry" />
        </mxCell>
        <mxCell id="9Mq8vIHb-vWuUOVEYLkd-24" value="LS" style="shape=partialRectangle;html=1;whiteSpace=wrap;connectable=0;fillColor=none;top=0;left=0;bottom=0;right=0;overflow=hidden;" vertex="1" parent="9Mq8vIHb-vWuUOVEYLkd-23">
          <mxGeometry width="60" height="40" as="geometry" />
        </mxCell>
        <mxCell id="9Mq8vIHb-vWuUOVEYLkd-25" value="SL" style="shape=partialRectangle;html=1;whiteSpace=wrap;connectable=0;fillColor=none;top=0;left=0;bottom=0;right=0;overflow=hidden;" vertex="1" parent="9Mq8vIHb-vWuUOVEYLkd-23">
          <mxGeometry x="60" width="60" height="40" as="geometry" />
        </mxCell>
        <mxCell id="9Mq8vIHb-vWuUOVEYLkd-26" value="LF" style="shape=partialRectangle;html=1;whiteSpace=wrap;connectable=0;fillColor=none;top=0;left=0;bottom=0;right=0;overflow=hidden;" vertex="1" parent="9Mq8vIHb-vWuUOVEYLkd-23">
          <mxGeometry x="120" width="60" height="40" as="geometry" />
        </mxCell>
        <mxCell id="9Mq8vIHb-vWuUOVEYLkd-55" value="KEY&lt;br&gt;ES: Early Start&lt;br&gt;D: Duration&lt;br&gt;EF: Early Finish&lt;br&gt;LS: Late Stack&lt;br&gt;SL: Start Slack&lt;br&gt;LF: Late Finish" style="text;html=1;align=center;verticalAlign=middle;resizable=0;points=[];autosize=1;strokeColor=none;" vertex="1" parent="1">
          <mxGeometry x="240" y="330" width="100" height="100" as="geometry" />
        </mxCell>
        <mxCell id="9Mq8vIHb-vWuUOVEYLkd-82" value="" style="shape=table;html=1;whiteSpace=wrap;startSize=0;container=1;collapsible=0;childLayout=tableLayout;" vertex="1" parent="1">
          <mxGeometry x="640" y="680" width="180" height="120" as="geometry" />
        </mxCell>
        <mxCell id="9Mq8vIHb-vWuUOVEYLkd-83" value="" style="shape=partialRectangle;html=1;whiteSpace=wrap;collapsible=0;dropTarget=0;pointerEvents=0;fillColor=none;top=0;left=0;bottom=0;right=0;points=[[0,0.5],[1,0.5]];portConstraint=eastwest;" vertex="1" parent="9Mq8vIHb-vWuUOVEYLkd-82">
          <mxGeometry width="180" height="40" as="geometry" />
        </mxCell>
        <mxCell id="9Mq8vIHb-vWuUOVEYLkd-84" value="0" style="shape=partialRectangle;html=1;whiteSpace=wrap;connectable=0;fillColor=none;top=0;left=0;bottom=0;right=0;overflow=hidden;" vertex="1" parent="9Mq8vIHb-vWuUOVEYLkd-83">
          <mxGeometry width="60" height="40" as="geometry" />
        </mxCell>
        <mxCell id="9Mq8vIHb-vWuUOVEYLkd-85" value="80" style="shape=partialRectangle;html=1;whiteSpace=wrap;connectable=0;fillColor=none;top=0;left=0;bottom=0;right=0;overflow=hidden;" vertex="1" parent="9Mq8vIHb-vWuUOVEYLkd-83">
          <mxGeometry x="60" width="60" height="40" as="geometry" />
        </mxCell>
        <mxCell id="9Mq8vIHb-vWuUOVEYLkd-86" value="80" style="shape=partialRectangle;html=1;whiteSpace=wrap;connectable=0;fillColor=none;top=0;left=0;bottom=0;right=0;overflow=hidden;" vertex="1" parent="9Mq8vIHb-vWuUOVEYLkd-83">
          <mxGeometry x="120" width="60" height="40" as="geometry" />
        </mxCell>
        <mxCell id="9Mq8vIHb-vWuUOVEYLkd-87" value="" style="shape=partialRectangle;html=1;whiteSpace=wrap;collapsible=0;dropTarget=0;pointerEvents=0;fillColor=none;top=0;left=0;bottom=0;right=0;points=[[0,0.5],[1,0.5]];portConstraint=eastwest;" vertex="1" parent="9Mq8vIHb-vWuUOVEYLkd-82">
          <mxGeometry y="40" width="180" height="40" as="geometry" />
        </mxCell>
        <mxCell id="9Mq8vIHb-vWuUOVEYLkd-88" value="" style="shape=partialRectangle;html=1;whiteSpace=wrap;connectable=0;fillColor=none;top=0;left=0;bottom=0;right=0;overflow=hidden;" vertex="1" parent="9Mq8vIHb-vWuUOVEYLkd-87">
          <mxGeometry width="60" height="40" as="geometry" />
        </mxCell>
        <mxCell id="9Mq8vIHb-vWuUOVEYLkd-89" value="Installment Design" style="shape=partialRectangle;html=1;whiteSpace=wrap;connectable=0;fillColor=none;top=0;left=0;bottom=0;right=0;overflow=hidden;" vertex="1" parent="9Mq8vIHb-vWuUOVEYLkd-87">
          <mxGeometry x="60" width="60" height="40" as="geometry" />
        </mxCell>
        <mxCell id="9Mq8vIHb-vWuUOVEYLkd-90" value="" style="shape=partialRectangle;html=1;whiteSpace=wrap;connectable=0;fillColor=none;top=0;left=0;bottom=0;right=0;overflow=hidden;" vertex="1" parent="9Mq8vIHb-vWuUOVEYLkd-87">
          <mxGeometry x="120" width="60" height="40" as="geometry" />
        </mxCell>
        <mxCell id="9Mq8vIHb-vWuUOVEYLkd-91" value="" style="shape=partialRectangle;html=1;whiteSpace=wrap;collapsible=0;dropTarget=0;pointerEvents=0;fillColor=none;top=0;left=0;bottom=0;right=0;points=[[0,0.5],[1,0.5]];portConstraint=eastwest;" vertex="1" parent="9Mq8vIHb-vWuUOVEYLkd-82">
          <mxGeometry y="80" width="180" height="40" as="geometry" />
        </mxCell>
        <mxCell id="9Mq8vIHb-vWuUOVEYLkd-92" value="0" style="shape=partialRectangle;html=1;whiteSpace=wrap;connectable=0;fillColor=none;top=0;left=0;bottom=0;right=0;overflow=hidden;" vertex="1" parent="9Mq8vIHb-vWuUOVEYLkd-91">
          <mxGeometry width="60" height="40" as="geometry" />
        </mxCell>
        <mxCell id="9Mq8vIHb-vWuUOVEYLkd-93" value="0" style="shape=partialRectangle;html=1;whiteSpace=wrap;connectable=0;fillColor=none;top=0;left=0;bottom=0;right=0;overflow=hidden;" vertex="1" parent="9Mq8vIHb-vWuUOVEYLkd-91">
          <mxGeometry x="60" width="60" height="40" as="geometry" />
        </mxCell>
        <mxCell id="9Mq8vIHb-vWuUOVEYLkd-94" value="80" style="shape=partialRectangle;html=1;whiteSpace=wrap;connectable=0;fillColor=none;top=0;left=0;bottom=0;right=0;overflow=hidden;" vertex="1" parent="9Mq8vIHb-vWuUOVEYLkd-91">
          <mxGeometry x="120" width="60" height="40" as="geometry" />
        </mxCell>
        <mxCell id="9Mq8vIHb-vWuUOVEYLkd-95" value="" style="shape=table;html=1;whiteSpace=wrap;startSize=0;container=1;collapsible=0;childLayout=tableLayout;" vertex="1" parent="1">
          <mxGeometry x="920" y="680" width="180" height="120" as="geometry" />
        </mxCell>
        <mxCell id="9Mq8vIHb-vWuUOVEYLkd-96" value="" style="shape=partialRectangle;html=1;whiteSpace=wrap;collapsible=0;dropTarget=0;pointerEvents=0;fillColor=none;top=0;left=0;bottom=0;right=0;points=[[0,0.5],[1,0.5]];portConstraint=eastwest;" vertex="1" parent="9Mq8vIHb-vWuUOVEYLkd-95">
          <mxGeometry width="180" height="40" as="geometry" />
        </mxCell>
        <mxCell id="9Mq8vIHb-vWuUOVEYLkd-97" value="80" style="shape=partialRectangle;html=1;whiteSpace=wrap;connectable=0;fillColor=none;top=0;left=0;bottom=0;right=0;overflow=hidden;" vertex="1" parent="9Mq8vIHb-vWuUOVEYLkd-96">
          <mxGeometry width="60" height="40" as="geometry" />
        </mxCell>
        <mxCell id="9Mq8vIHb-vWuUOVEYLkd-98" value="80" style="shape=partialRectangle;html=1;whiteSpace=wrap;connectable=0;fillColor=none;top=0;left=0;bottom=0;right=0;overflow=hidden;" vertex="1" parent="9Mq8vIHb-vWuUOVEYLkd-96">
          <mxGeometry x="60" width="60" height="40" as="geometry" />
        </mxCell>
        <mxCell id="9Mq8vIHb-vWuUOVEYLkd-99" value="160" style="shape=partialRectangle;html=1;whiteSpace=wrap;connectable=0;fillColor=none;top=0;left=0;bottom=0;right=0;overflow=hidden;" vertex="1" parent="9Mq8vIHb-vWuUOVEYLkd-96">
          <mxGeometry x="120" width="60" height="40" as="geometry" />
        </mxCell>
        <mxCell id="9Mq8vIHb-vWuUOVEYLkd-100" value="" style="shape=partialRectangle;html=1;whiteSpace=wrap;collapsible=0;dropTarget=0;pointerEvents=0;fillColor=none;top=0;left=0;bottom=0;right=0;points=[[0,0.5],[1,0.5]];portConstraint=eastwest;" vertex="1" parent="9Mq8vIHb-vWuUOVEYLkd-95">
          <mxGeometry y="40" width="180" height="40" as="geometry" />
        </mxCell>
        <mxCell id="9Mq8vIHb-vWuUOVEYLkd-101" value="" style="shape=partialRectangle;html=1;whiteSpace=wrap;connectable=0;fillColor=none;top=0;left=0;bottom=0;right=0;overflow=hidden;" vertex="1" parent="9Mq8vIHb-vWuUOVEYLkd-100">
          <mxGeometry width="60" height="40" as="geometry" />
        </mxCell>
        <mxCell id="9Mq8vIHb-vWuUOVEYLkd-102" value="Sensors Purchase" style="shape=partialRectangle;html=1;whiteSpace=wrap;connectable=0;fillColor=none;top=0;left=0;bottom=0;right=0;overflow=hidden;" vertex="1" parent="9Mq8vIHb-vWuUOVEYLkd-100">
          <mxGeometry x="60" width="60" height="40" as="geometry" />
        </mxCell>
        <mxCell id="9Mq8vIHb-vWuUOVEYLkd-103" value="" style="shape=partialRectangle;html=1;whiteSpace=wrap;connectable=0;fillColor=none;top=0;left=0;bottom=0;right=0;overflow=hidden;" vertex="1" parent="9Mq8vIHb-vWuUOVEYLkd-100">
          <mxGeometry x="120" width="60" height="40" as="geometry" />
        </mxCell>
        <mxCell id="9Mq8vIHb-vWuUOVEYLkd-104" value="" style="shape=partialRectangle;html=1;whiteSpace=wrap;collapsible=0;dropTarget=0;pointerEvents=0;fillColor=none;top=0;left=0;bottom=0;right=0;points=[[0,0.5],[1,0.5]];portConstraint=eastwest;" vertex="1" parent="9Mq8vIHb-vWuUOVEYLkd-95">
          <mxGeometry y="80" width="180" height="40" as="geometry" />
        </mxCell>
        <mxCell id="9Mq8vIHb-vWuUOVEYLkd-105" value="80" style="shape=partialRectangle;html=1;whiteSpace=wrap;connectable=0;fillColor=none;top=0;left=0;bottom=0;right=0;overflow=hidden;" vertex="1" parent="9Mq8vIHb-vWuUOVEYLkd-104">
          <mxGeometry width="60" height="40" as="geometry" />
        </mxCell>
        <mxCell id="9Mq8vIHb-vWuUOVEYLkd-106" value="0" style="shape=partialRectangle;html=1;whiteSpace=wrap;connectable=0;fillColor=none;top=0;left=0;bottom=0;right=0;overflow=hidden;" vertex="1" parent="9Mq8vIHb-vWuUOVEYLkd-104">
          <mxGeometry x="60" width="60" height="40" as="geometry" />
        </mxCell>
        <mxCell id="9Mq8vIHb-vWuUOVEYLkd-107" value="160" style="shape=partialRectangle;html=1;whiteSpace=wrap;connectable=0;fillColor=none;top=0;left=0;bottom=0;right=0;overflow=hidden;" vertex="1" parent="9Mq8vIHb-vWuUOVEYLkd-104">
          <mxGeometry x="120" width="60" height="40" as="geometry" />
        </mxCell>
        <mxCell id="9Mq8vIHb-vWuUOVEYLkd-108" value="" style="shape=table;html=1;whiteSpace=wrap;startSize=0;container=1;collapsible=0;childLayout=tableLayout;" vertex="1" parent="1">
          <mxGeometry x="1200" y="680" width="180" height="120" as="geometry" />
        </mxCell>
        <mxCell id="9Mq8vIHb-vWuUOVEYLkd-109" value="" style="shape=partialRectangle;html=1;whiteSpace=wrap;collapsible=0;dropTarget=0;pointerEvents=0;fillColor=none;top=0;left=0;bottom=0;right=0;points=[[0,0.5],[1,0.5]];portConstraint=eastwest;" vertex="1" parent="9Mq8vIHb-vWuUOVEYLkd-108">
          <mxGeometry width="180" height="40" as="geometry" />
        </mxCell>
        <mxCell id="9Mq8vIHb-vWuUOVEYLkd-110" value="160" style="shape=partialRectangle;html=1;whiteSpace=wrap;connectable=0;fillColor=none;top=0;left=0;bottom=0;right=0;overflow=hidden;" vertex="1" parent="9Mq8vIHb-vWuUOVEYLkd-109">
          <mxGeometry width="60" height="40" as="geometry" />
        </mxCell>
        <mxCell id="9Mq8vIHb-vWuUOVEYLkd-111" value="320" style="shape=partialRectangle;html=1;whiteSpace=wrap;connectable=0;fillColor=none;top=0;left=0;bottom=0;right=0;overflow=hidden;" vertex="1" parent="9Mq8vIHb-vWuUOVEYLkd-109">
          <mxGeometry x="60" width="60" height="40" as="geometry" />
        </mxCell>
        <mxCell id="9Mq8vIHb-vWuUOVEYLkd-112" value="480" style="shape=partialRectangle;html=1;whiteSpace=wrap;connectable=0;fillColor=none;top=0;left=0;bottom=0;right=0;overflow=hidden;" vertex="1" parent="9Mq8vIHb-vWuUOVEYLkd-109">
          <mxGeometry x="120" width="60" height="40" as="geometry" />
        </mxCell>
        <mxCell id="9Mq8vIHb-vWuUOVEYLkd-113" value="" style="shape=partialRectangle;html=1;whiteSpace=wrap;collapsible=0;dropTarget=0;pointerEvents=0;fillColor=none;top=0;left=0;bottom=0;right=0;points=[[0,0.5],[1,0.5]];portConstraint=eastwest;" vertex="1" parent="9Mq8vIHb-vWuUOVEYLkd-108">
          <mxGeometry y="40" width="180" height="40" as="geometry" />
        </mxCell>
        <mxCell id="9Mq8vIHb-vWuUOVEYLkd-114" value="" style="shape=partialRectangle;html=1;whiteSpace=wrap;connectable=0;fillColor=none;top=0;left=0;bottom=0;right=0;overflow=hidden;" vertex="1" parent="9Mq8vIHb-vWuUOVEYLkd-113">
          <mxGeometry width="60" height="40" as="geometry" />
        </mxCell>
        <mxCell id="9Mq8vIHb-vWuUOVEYLkd-115" value="Sensors Installation" style="shape=partialRectangle;html=1;whiteSpace=wrap;connectable=0;fillColor=none;top=0;left=0;bottom=0;right=0;overflow=hidden;" vertex="1" parent="9Mq8vIHb-vWuUOVEYLkd-113">
          <mxGeometry x="60" width="60" height="40" as="geometry" />
        </mxCell>
        <mxCell id="9Mq8vIHb-vWuUOVEYLkd-116" value="" style="shape=partialRectangle;html=1;whiteSpace=wrap;connectable=0;fillColor=none;top=0;left=0;bottom=0;right=0;overflow=hidden;" vertex="1" parent="9Mq8vIHb-vWuUOVEYLkd-113">
          <mxGeometry x="120" width="60" height="40" as="geometry" />
        </mxCell>
        <mxCell id="9Mq8vIHb-vWuUOVEYLkd-117" value="" style="shape=partialRectangle;html=1;whiteSpace=wrap;collapsible=0;dropTarget=0;pointerEvents=0;fillColor=none;top=0;left=0;bottom=0;right=0;points=[[0,0.5],[1,0.5]];portConstraint=eastwest;" vertex="1" parent="9Mq8vIHb-vWuUOVEYLkd-108">
          <mxGeometry y="80" width="180" height="40" as="geometry" />
        </mxCell>
        <mxCell id="9Mq8vIHb-vWuUOVEYLkd-118" value="160" style="shape=partialRectangle;html=1;whiteSpace=wrap;connectable=0;fillColor=none;top=0;left=0;bottom=0;right=0;overflow=hidden;" vertex="1" parent="9Mq8vIHb-vWuUOVEYLkd-117">
          <mxGeometry width="60" height="40" as="geometry" />
        </mxCell>
        <mxCell id="9Mq8vIHb-vWuUOVEYLkd-119" value="0" style="shape=partialRectangle;html=1;whiteSpace=wrap;connectable=0;fillColor=none;top=0;left=0;bottom=0;right=0;overflow=hidden;" vertex="1" parent="9Mq8vIHb-vWuUOVEYLkd-117">
          <mxGeometry x="60" width="60" height="40" as="geometry" />
        </mxCell>
        <mxCell id="9Mq8vIHb-vWuUOVEYLkd-120" value="480" style="shape=partialRectangle;html=1;whiteSpace=wrap;connectable=0;fillColor=none;top=0;left=0;bottom=0;right=0;overflow=hidden;" vertex="1" parent="9Mq8vIHb-vWuUOVEYLkd-117">
          <mxGeometry x="120" width="60" height="40" as="geometry" />
        </mxCell>
        <mxCell id="9Mq8vIHb-vWuUOVEYLkd-121" value="" style="shape=table;html=1;whiteSpace=wrap;startSize=0;container=1;collapsible=0;childLayout=tableLayout;" vertex="1" parent="1">
          <mxGeometry x="1480" y="680" width="180" height="120" as="geometry" />
        </mxCell>
        <mxCell id="9Mq8vIHb-vWuUOVEYLkd-122" value="" style="shape=partialRectangle;html=1;whiteSpace=wrap;collapsible=0;dropTarget=0;pointerEvents=0;fillColor=none;top=0;left=0;bottom=0;right=0;points=[[0,0.5],[1,0.5]];portConstraint=eastwest;" vertex="1" parent="9Mq8vIHb-vWuUOVEYLkd-121">
          <mxGeometry width="180" height="40" as="geometry" />
        </mxCell>
        <mxCell id="9Mq8vIHb-vWuUOVEYLkd-123" value="480" style="shape=partialRectangle;html=1;whiteSpace=wrap;connectable=0;fillColor=none;top=0;left=0;bottom=0;right=0;overflow=hidden;" vertex="1" parent="9Mq8vIHb-vWuUOVEYLkd-122">
          <mxGeometry width="60" height="40" as="geometry" />
        </mxCell>
        <mxCell id="9Mq8vIHb-vWuUOVEYLkd-124" value="40" style="shape=partialRectangle;html=1;whiteSpace=wrap;connectable=0;fillColor=none;top=0;left=0;bottom=0;right=0;overflow=hidden;" vertex="1" parent="9Mq8vIHb-vWuUOVEYLkd-122">
          <mxGeometry x="60" width="60" height="40" as="geometry" />
        </mxCell>
        <mxCell id="9Mq8vIHb-vWuUOVEYLkd-125" value="520" style="shape=partialRectangle;html=1;whiteSpace=wrap;connectable=0;fillColor=none;top=0;left=0;bottom=0;right=0;overflow=hidden;" vertex="1" parent="9Mq8vIHb-vWuUOVEYLkd-122">
          <mxGeometry x="120" width="60" height="40" as="geometry" />
        </mxCell>
        <mxCell id="9Mq8vIHb-vWuUOVEYLkd-126" value="" style="shape=partialRectangle;html=1;whiteSpace=wrap;collapsible=0;dropTarget=0;pointerEvents=0;fillColor=none;top=0;left=0;bottom=0;right=0;points=[[0,0.5],[1,0.5]];portConstraint=eastwest;" vertex="1" parent="9Mq8vIHb-vWuUOVEYLkd-121">
          <mxGeometry y="40" width="180" height="40" as="geometry" />
        </mxCell>
        <mxCell id="9Mq8vIHb-vWuUOVEYLkd-127" value="" style="shape=partialRectangle;html=1;whiteSpace=wrap;connectable=0;fillColor=none;top=0;left=0;bottom=0;right=0;overflow=hidden;" vertex="1" parent="9Mq8vIHb-vWuUOVEYLkd-126">
          <mxGeometry width="60" height="40" as="geometry" />
        </mxCell>
        <mxCell id="9Mq8vIHb-vWuUOVEYLkd-128" value="Sensor Functionality test" style="shape=partialRectangle;html=1;whiteSpace=wrap;connectable=0;fillColor=none;top=0;left=0;bottom=0;right=0;overflow=hidden;" vertex="1" parent="9Mq8vIHb-vWuUOVEYLkd-126">
          <mxGeometry x="60" width="60" height="40" as="geometry" />
        </mxCell>
        <mxCell id="9Mq8vIHb-vWuUOVEYLkd-129" value="" style="shape=partialRectangle;html=1;whiteSpace=wrap;connectable=0;fillColor=none;top=0;left=0;bottom=0;right=0;overflow=hidden;" vertex="1" parent="9Mq8vIHb-vWuUOVEYLkd-126">
          <mxGeometry x="120" width="60" height="40" as="geometry" />
        </mxCell>
        <mxCell id="9Mq8vIHb-vWuUOVEYLkd-130" value="" style="shape=partialRectangle;html=1;whiteSpace=wrap;collapsible=0;dropTarget=0;pointerEvents=0;fillColor=none;top=0;left=0;bottom=0;right=0;points=[[0,0.5],[1,0.5]];portConstraint=eastwest;" vertex="1" parent="9Mq8vIHb-vWuUOVEYLkd-121">
          <mxGeometry y="80" width="180" height="40" as="geometry" />
        </mxCell>
        <mxCell id="9Mq8vIHb-vWuUOVEYLkd-131" value="480" style="shape=partialRectangle;html=1;whiteSpace=wrap;connectable=0;fillColor=none;top=0;left=0;bottom=0;right=0;overflow=hidden;" vertex="1" parent="9Mq8vIHb-vWuUOVEYLkd-130">
          <mxGeometry width="60" height="40" as="geometry" />
        </mxCell>
        <mxCell id="9Mq8vIHb-vWuUOVEYLkd-132" value="0" style="shape=partialRectangle;html=1;whiteSpace=wrap;connectable=0;fillColor=none;top=0;left=0;bottom=0;right=0;overflow=hidden;" vertex="1" parent="9Mq8vIHb-vWuUOVEYLkd-130">
          <mxGeometry x="60" width="60" height="40" as="geometry" />
        </mxCell>
        <mxCell id="9Mq8vIHb-vWuUOVEYLkd-133" value="520" style="shape=partialRectangle;html=1;whiteSpace=wrap;connectable=0;fillColor=none;top=0;left=0;bottom=0;right=0;overflow=hidden;" vertex="1" parent="9Mq8vIHb-vWuUOVEYLkd-130">
          <mxGeometry x="120" width="60" height="40" as="geometry" />
        </mxCell>
        <mxCell id="9Mq8vIHb-vWuUOVEYLkd-134" value="" style="shape=table;html=1;whiteSpace=wrap;startSize=0;container=1;collapsible=0;childLayout=tableLayout;" vertex="1" parent="1">
          <mxGeometry x="1760" y="680" width="180" height="120" as="geometry" />
        </mxCell>
        <mxCell id="9Mq8vIHb-vWuUOVEYLkd-135" value="" style="shape=partialRectangle;html=1;whiteSpace=wrap;collapsible=0;dropTarget=0;pointerEvents=0;fillColor=none;top=0;left=0;bottom=0;right=0;points=[[0,0.5],[1,0.5]];portConstraint=eastwest;" vertex="1" parent="9Mq8vIHb-vWuUOVEYLkd-134">
          <mxGeometry width="180" height="40" as="geometry" />
        </mxCell>
        <mxCell id="9Mq8vIHb-vWuUOVEYLkd-136" value="520" style="shape=partialRectangle;html=1;whiteSpace=wrap;connectable=0;fillColor=none;top=0;left=0;bottom=0;right=0;overflow=hidden;" vertex="1" parent="9Mq8vIHb-vWuUOVEYLkd-135">
          <mxGeometry width="60" height="40" as="geometry" />
        </mxCell>
        <mxCell id="9Mq8vIHb-vWuUOVEYLkd-137" value="40" style="shape=partialRectangle;html=1;whiteSpace=wrap;connectable=0;fillColor=none;top=0;left=0;bottom=0;right=0;overflow=hidden;" vertex="1" parent="9Mq8vIHb-vWuUOVEYLkd-135">
          <mxGeometry x="60" width="60" height="40" as="geometry" />
        </mxCell>
        <mxCell id="9Mq8vIHb-vWuUOVEYLkd-138" value="560" style="shape=partialRectangle;html=1;whiteSpace=wrap;connectable=0;fillColor=none;top=0;left=0;bottom=0;right=0;overflow=hidden;" vertex="1" parent="9Mq8vIHb-vWuUOVEYLkd-135">
          <mxGeometry x="120" width="60" height="40" as="geometry" />
        </mxCell>
        <mxCell id="9Mq8vIHb-vWuUOVEYLkd-139" value="" style="shape=partialRectangle;html=1;whiteSpace=wrap;collapsible=0;dropTarget=0;pointerEvents=0;fillColor=none;top=0;left=0;bottom=0;right=0;points=[[0,0.5],[1,0.5]];portConstraint=eastwest;" vertex="1" parent="9Mq8vIHb-vWuUOVEYLkd-134">
          <mxGeometry y="40" width="180" height="40" as="geometry" />
        </mxCell>
        <mxCell id="9Mq8vIHb-vWuUOVEYLkd-140" value="" style="shape=partialRectangle;html=1;whiteSpace=wrap;connectable=0;fillColor=none;top=0;left=0;bottom=0;right=0;overflow=hidden;" vertex="1" parent="9Mq8vIHb-vWuUOVEYLkd-139">
          <mxGeometry width="60" height="40" as="geometry" />
        </mxCell>
        <mxCell id="9Mq8vIHb-vWuUOVEYLkd-141" value="Sensors Interface management" style="shape=partialRectangle;html=1;whiteSpace=wrap;connectable=0;fillColor=none;top=0;left=0;bottom=0;right=0;overflow=hidden;" vertex="1" parent="9Mq8vIHb-vWuUOVEYLkd-139">
          <mxGeometry x="60" width="60" height="40" as="geometry" />
        </mxCell>
        <mxCell id="9Mq8vIHb-vWuUOVEYLkd-142" value="" style="shape=partialRectangle;html=1;whiteSpace=wrap;connectable=0;fillColor=none;top=0;left=0;bottom=0;right=0;overflow=hidden;" vertex="1" parent="9Mq8vIHb-vWuUOVEYLkd-139">
          <mxGeometry x="120" width="60" height="40" as="geometry" />
        </mxCell>
        <mxCell id="9Mq8vIHb-vWuUOVEYLkd-143" value="" style="shape=partialRectangle;html=1;whiteSpace=wrap;collapsible=0;dropTarget=0;pointerEvents=0;fillColor=none;top=0;left=0;bottom=0;right=0;points=[[0,0.5],[1,0.5]];portConstraint=eastwest;" vertex="1" parent="9Mq8vIHb-vWuUOVEYLkd-134">
          <mxGeometry y="80" width="180" height="40" as="geometry" />
        </mxCell>
        <mxCell id="9Mq8vIHb-vWuUOVEYLkd-144" value="520" style="shape=partialRectangle;html=1;whiteSpace=wrap;connectable=0;fillColor=none;top=0;left=0;bottom=0;right=0;overflow=hidden;" vertex="1" parent="9Mq8vIHb-vWuUOVEYLkd-143">
          <mxGeometry width="60" height="40" as="geometry" />
        </mxCell>
        <mxCell id="9Mq8vIHb-vWuUOVEYLkd-145" value="0" style="shape=partialRectangle;html=1;whiteSpace=wrap;connectable=0;fillColor=none;top=0;left=0;bottom=0;right=0;overflow=hidden;" vertex="1" parent="9Mq8vIHb-vWuUOVEYLkd-143">
          <mxGeometry x="60" width="60" height="40" as="geometry" />
        </mxCell>
        <mxCell id="9Mq8vIHb-vWuUOVEYLkd-146" value="560" style="shape=partialRectangle;html=1;whiteSpace=wrap;connectable=0;fillColor=none;top=0;left=0;bottom=0;right=0;overflow=hidden;" vertex="1" parent="9Mq8vIHb-vWuUOVEYLkd-143">
          <mxGeometry x="120" width="60" height="40" as="geometry" />
        </mxCell>
        <mxCell id="9Mq8vIHb-vWuUOVEYLkd-160" value="" style="shape=table;html=1;whiteSpace=wrap;startSize=0;container=1;collapsible=0;childLayout=tableLayout;" vertex="1" parent="1">
          <mxGeometry x="640" y="440" width="180" height="120" as="geometry" />
        </mxCell>
        <mxCell id="9Mq8vIHb-vWuUOVEYLkd-161" value="" style="shape=partialRectangle;html=1;whiteSpace=wrap;collapsible=0;dropTarget=0;pointerEvents=0;fillColor=none;top=0;left=0;bottom=0;right=0;points=[[0,0.5],[1,0.5]];portConstraint=eastwest;" vertex="1" parent="9Mq8vIHb-vWuUOVEYLkd-160">
          <mxGeometry width="180" height="40" as="geometry" />
        </mxCell>
        <mxCell id="9Mq8vIHb-vWuUOVEYLkd-162" value="0" style="shape=partialRectangle;html=1;whiteSpace=wrap;connectable=0;fillColor=none;top=0;left=0;bottom=0;right=0;overflow=hidden;" vertex="1" parent="9Mq8vIHb-vWuUOVEYLkd-161">
          <mxGeometry width="60" height="40" as="geometry" />
        </mxCell>
        <mxCell id="9Mq8vIHb-vWuUOVEYLkd-163" value="40" style="shape=partialRectangle;html=1;whiteSpace=wrap;connectable=0;fillColor=none;top=0;left=0;bottom=0;right=0;overflow=hidden;" vertex="1" parent="9Mq8vIHb-vWuUOVEYLkd-161">
          <mxGeometry x="60" width="60" height="40" as="geometry" />
        </mxCell>
        <mxCell id="9Mq8vIHb-vWuUOVEYLkd-164" value="40" style="shape=partialRectangle;html=1;whiteSpace=wrap;connectable=0;fillColor=none;top=0;left=0;bottom=0;right=0;overflow=hidden;" vertex="1" parent="9Mq8vIHb-vWuUOVEYLkd-161">
          <mxGeometry x="120" width="60" height="40" as="geometry" />
        </mxCell>
        <mxCell id="9Mq8vIHb-vWuUOVEYLkd-165" value="" style="shape=partialRectangle;html=1;whiteSpace=wrap;collapsible=0;dropTarget=0;pointerEvents=0;fillColor=none;top=0;left=0;bottom=0;right=0;points=[[0,0.5],[1,0.5]];portConstraint=eastwest;" vertex="1" parent="9Mq8vIHb-vWuUOVEYLkd-160">
          <mxGeometry y="40" width="180" height="40" as="geometry" />
        </mxCell>
        <mxCell id="9Mq8vIHb-vWuUOVEYLkd-166" value="" style="shape=partialRectangle;html=1;whiteSpace=wrap;connectable=0;fillColor=none;top=0;left=0;bottom=0;right=0;overflow=hidden;" vertex="1" parent="9Mq8vIHb-vWuUOVEYLkd-165">
          <mxGeometry width="60" height="40" as="geometry" />
        </mxCell>
        <mxCell id="9Mq8vIHb-vWuUOVEYLkd-167" value="Local Server Capacity Analysis" style="shape=partialRectangle;html=1;whiteSpace=wrap;connectable=0;fillColor=none;top=0;left=0;bottom=0;right=0;overflow=hidden;" vertex="1" parent="9Mq8vIHb-vWuUOVEYLkd-165">
          <mxGeometry x="60" width="60" height="40" as="geometry" />
        </mxCell>
        <mxCell id="9Mq8vIHb-vWuUOVEYLkd-168" value="" style="shape=partialRectangle;html=1;whiteSpace=wrap;connectable=0;fillColor=none;top=0;left=0;bottom=0;right=0;overflow=hidden;" vertex="1" parent="9Mq8vIHb-vWuUOVEYLkd-165">
          <mxGeometry x="120" width="60" height="40" as="geometry" />
        </mxCell>
        <mxCell id="9Mq8vIHb-vWuUOVEYLkd-169" value="" style="shape=partialRectangle;html=1;whiteSpace=wrap;collapsible=0;dropTarget=0;pointerEvents=0;fillColor=none;top=0;left=0;bottom=0;right=0;points=[[0,0.5],[1,0.5]];portConstraint=eastwest;" vertex="1" parent="9Mq8vIHb-vWuUOVEYLkd-160">
          <mxGeometry y="80" width="180" height="40" as="geometry" />
        </mxCell>
        <mxCell id="9Mq8vIHb-vWuUOVEYLkd-170" value="0" style="shape=partialRectangle;html=1;whiteSpace=wrap;connectable=0;fillColor=none;top=0;left=0;bottom=0;right=0;overflow=hidden;" vertex="1" parent="9Mq8vIHb-vWuUOVEYLkd-169">
          <mxGeometry width="60" height="40" as="geometry" />
        </mxCell>
        <mxCell id="9Mq8vIHb-vWuUOVEYLkd-171" value="0" style="shape=partialRectangle;html=1;whiteSpace=wrap;connectable=0;fillColor=none;top=0;left=0;bottom=0;right=0;overflow=hidden;" vertex="1" parent="9Mq8vIHb-vWuUOVEYLkd-169">
          <mxGeometry x="60" width="60" height="40" as="geometry" />
        </mxCell>
        <mxCell id="9Mq8vIHb-vWuUOVEYLkd-172" value="40" style="shape=partialRectangle;html=1;whiteSpace=wrap;connectable=0;fillColor=none;top=0;left=0;bottom=0;right=0;overflow=hidden;" vertex="1" parent="9Mq8vIHb-vWuUOVEYLkd-169">
          <mxGeometry x="120" width="60" height="40" as="geometry" />
        </mxCell>
        <mxCell id="9Mq8vIHb-vWuUOVEYLkd-173" value="" style="shape=table;html=1;whiteSpace=wrap;startSize=0;container=1;collapsible=0;childLayout=tableLayout;" vertex="1" parent="1">
          <mxGeometry x="920" y="440" width="180" height="120" as="geometry" />
        </mxCell>
        <mxCell id="9Mq8vIHb-vWuUOVEYLkd-174" value="" style="shape=partialRectangle;html=1;whiteSpace=wrap;collapsible=0;dropTarget=0;pointerEvents=0;fillColor=none;top=0;left=0;bottom=0;right=0;points=[[0,0.5],[1,0.5]];portConstraint=eastwest;" vertex="1" parent="9Mq8vIHb-vWuUOVEYLkd-173">
          <mxGeometry width="180" height="40" as="geometry" />
        </mxCell>
        <mxCell id="9Mq8vIHb-vWuUOVEYLkd-175" value="40" style="shape=partialRectangle;html=1;whiteSpace=wrap;connectable=0;fillColor=none;top=0;left=0;bottom=0;right=0;overflow=hidden;" vertex="1" parent="9Mq8vIHb-vWuUOVEYLkd-174">
          <mxGeometry width="60" height="40" as="geometry" />
        </mxCell>
        <mxCell id="9Mq8vIHb-vWuUOVEYLkd-176" value="80" style="shape=partialRectangle;html=1;whiteSpace=wrap;connectable=0;fillColor=none;top=0;left=0;bottom=0;right=0;overflow=hidden;" vertex="1" parent="9Mq8vIHb-vWuUOVEYLkd-174">
          <mxGeometry x="60" width="60" height="40" as="geometry" />
        </mxCell>
        <mxCell id="9Mq8vIHb-vWuUOVEYLkd-177" value="120" style="shape=partialRectangle;html=1;whiteSpace=wrap;connectable=0;fillColor=none;top=0;left=0;bottom=0;right=0;overflow=hidden;" vertex="1" parent="9Mq8vIHb-vWuUOVEYLkd-174">
          <mxGeometry x="120" width="60" height="40" as="geometry" />
        </mxCell>
        <mxCell id="9Mq8vIHb-vWuUOVEYLkd-178" value="" style="shape=partialRectangle;html=1;whiteSpace=wrap;collapsible=0;dropTarget=0;pointerEvents=0;fillColor=none;top=0;left=0;bottom=0;right=0;points=[[0,0.5],[1,0.5]];portConstraint=eastwest;" vertex="1" parent="9Mq8vIHb-vWuUOVEYLkd-173">
          <mxGeometry y="40" width="180" height="40" as="geometry" />
        </mxCell>
        <mxCell id="9Mq8vIHb-vWuUOVEYLkd-179" value="" style="shape=partialRectangle;html=1;whiteSpace=wrap;connectable=0;fillColor=none;top=0;left=0;bottom=0;right=0;overflow=hidden;" vertex="1" parent="9Mq8vIHb-vWuUOVEYLkd-178">
          <mxGeometry width="60" height="40" as="geometry" />
        </mxCell>
        <mxCell id="9Mq8vIHb-vWuUOVEYLkd-180" value="Purchase" style="shape=partialRectangle;html=1;whiteSpace=wrap;connectable=0;fillColor=none;top=0;left=0;bottom=0;right=0;overflow=hidden;" vertex="1" parent="9Mq8vIHb-vWuUOVEYLkd-178">
          <mxGeometry x="60" width="60" height="40" as="geometry" />
        </mxCell>
        <mxCell id="9Mq8vIHb-vWuUOVEYLkd-181" value="" style="shape=partialRectangle;html=1;whiteSpace=wrap;connectable=0;fillColor=none;top=0;left=0;bottom=0;right=0;overflow=hidden;" vertex="1" parent="9Mq8vIHb-vWuUOVEYLkd-178">
          <mxGeometry x="120" width="60" height="40" as="geometry" />
        </mxCell>
        <mxCell id="9Mq8vIHb-vWuUOVEYLkd-182" value="" style="shape=partialRectangle;html=1;whiteSpace=wrap;collapsible=0;dropTarget=0;pointerEvents=0;fillColor=none;top=0;left=0;bottom=0;right=0;points=[[0,0.5],[1,0.5]];portConstraint=eastwest;" vertex="1" parent="9Mq8vIHb-vWuUOVEYLkd-173">
          <mxGeometry y="80" width="180" height="40" as="geometry" />
        </mxCell>
        <mxCell id="9Mq8vIHb-vWuUOVEYLkd-183" value="40" style="shape=partialRectangle;html=1;whiteSpace=wrap;connectable=0;fillColor=none;top=0;left=0;bottom=0;right=0;overflow=hidden;" vertex="1" parent="9Mq8vIHb-vWuUOVEYLkd-182">
          <mxGeometry width="60" height="40" as="geometry" />
        </mxCell>
        <mxCell id="9Mq8vIHb-vWuUOVEYLkd-184" value="0" style="shape=partialRectangle;html=1;whiteSpace=wrap;connectable=0;fillColor=none;top=0;left=0;bottom=0;right=0;overflow=hidden;" vertex="1" parent="9Mq8vIHb-vWuUOVEYLkd-182">
          <mxGeometry x="60" width="60" height="40" as="geometry" />
        </mxCell>
        <mxCell id="9Mq8vIHb-vWuUOVEYLkd-185" value="120" style="shape=partialRectangle;html=1;whiteSpace=wrap;connectable=0;fillColor=none;top=0;left=0;bottom=0;right=0;overflow=hidden;" vertex="1" parent="9Mq8vIHb-vWuUOVEYLkd-182">
          <mxGeometry x="120" width="60" height="40" as="geometry" />
        </mxCell>
        <mxCell id="9Mq8vIHb-vWuUOVEYLkd-186" value="" style="shape=table;html=1;whiteSpace=wrap;startSize=0;container=1;collapsible=0;childLayout=tableLayout;" vertex="1" parent="1">
          <mxGeometry x="1200" y="440" width="180" height="120" as="geometry" />
        </mxCell>
        <mxCell id="9Mq8vIHb-vWuUOVEYLkd-187" value="" style="shape=partialRectangle;html=1;whiteSpace=wrap;collapsible=0;dropTarget=0;pointerEvents=0;fillColor=none;top=0;left=0;bottom=0;right=0;points=[[0,0.5],[1,0.5]];portConstraint=eastwest;" vertex="1" parent="9Mq8vIHb-vWuUOVEYLkd-186">
          <mxGeometry width="180" height="40" as="geometry" />
        </mxCell>
        <mxCell id="9Mq8vIHb-vWuUOVEYLkd-188" value="120" style="shape=partialRectangle;html=1;whiteSpace=wrap;connectable=0;fillColor=none;top=0;left=0;bottom=0;right=0;overflow=hidden;" vertex="1" parent="9Mq8vIHb-vWuUOVEYLkd-187">
          <mxGeometry width="60" height="40" as="geometry" />
        </mxCell>
        <mxCell id="9Mq8vIHb-vWuUOVEYLkd-189" value="40" style="shape=partialRectangle;html=1;whiteSpace=wrap;connectable=0;fillColor=none;top=0;left=0;bottom=0;right=0;overflow=hidden;" vertex="1" parent="9Mq8vIHb-vWuUOVEYLkd-187">
          <mxGeometry x="60" width="60" height="40" as="geometry" />
        </mxCell>
        <mxCell id="9Mq8vIHb-vWuUOVEYLkd-190" value="160" style="shape=partialRectangle;html=1;whiteSpace=wrap;connectable=0;fillColor=none;top=0;left=0;bottom=0;right=0;overflow=hidden;" vertex="1" parent="9Mq8vIHb-vWuUOVEYLkd-187">
          <mxGeometry x="120" width="60" height="40" as="geometry" />
        </mxCell>
        <mxCell id="9Mq8vIHb-vWuUOVEYLkd-191" value="" style="shape=partialRectangle;html=1;whiteSpace=wrap;collapsible=0;dropTarget=0;pointerEvents=0;fillColor=none;top=0;left=0;bottom=0;right=0;points=[[0,0.5],[1,0.5]];portConstraint=eastwest;" vertex="1" parent="9Mq8vIHb-vWuUOVEYLkd-186">
          <mxGeometry y="40" width="180" height="40" as="geometry" />
        </mxCell>
        <mxCell id="9Mq8vIHb-vWuUOVEYLkd-192" value="" style="shape=partialRectangle;html=1;whiteSpace=wrap;connectable=0;fillColor=none;top=0;left=0;bottom=0;right=0;overflow=hidden;" vertex="1" parent="9Mq8vIHb-vWuUOVEYLkd-191">
          <mxGeometry width="60" height="40" as="geometry" />
        </mxCell>
        <mxCell id="9Mq8vIHb-vWuUOVEYLkd-193" value="Server Setup" style="shape=partialRectangle;html=1;whiteSpace=wrap;connectable=0;fillColor=none;top=0;left=0;bottom=0;right=0;overflow=hidden;" vertex="1" parent="9Mq8vIHb-vWuUOVEYLkd-191">
          <mxGeometry x="60" width="60" height="40" as="geometry" />
        </mxCell>
        <mxCell id="9Mq8vIHb-vWuUOVEYLkd-194" value="" style="shape=partialRectangle;html=1;whiteSpace=wrap;connectable=0;fillColor=none;top=0;left=0;bottom=0;right=0;overflow=hidden;" vertex="1" parent="9Mq8vIHb-vWuUOVEYLkd-191">
          <mxGeometry x="120" width="60" height="40" as="geometry" />
        </mxCell>
        <mxCell id="9Mq8vIHb-vWuUOVEYLkd-195" value="" style="shape=partialRectangle;html=1;whiteSpace=wrap;collapsible=0;dropTarget=0;pointerEvents=0;fillColor=none;top=0;left=0;bottom=0;right=0;points=[[0,0.5],[1,0.5]];portConstraint=eastwest;" vertex="1" parent="9Mq8vIHb-vWuUOVEYLkd-186">
          <mxGeometry y="80" width="180" height="40" as="geometry" />
        </mxCell>
        <mxCell id="9Mq8vIHb-vWuUOVEYLkd-196" value="120" style="shape=partialRectangle;html=1;whiteSpace=wrap;connectable=0;fillColor=none;top=0;left=0;bottom=0;right=0;overflow=hidden;" vertex="1" parent="9Mq8vIHb-vWuUOVEYLkd-195">
          <mxGeometry width="60" height="40" as="geometry" />
        </mxCell>
        <mxCell id="9Mq8vIHb-vWuUOVEYLkd-197" value="0" style="shape=partialRectangle;html=1;whiteSpace=wrap;connectable=0;fillColor=none;top=0;left=0;bottom=0;right=0;overflow=hidden;" vertex="1" parent="9Mq8vIHb-vWuUOVEYLkd-195">
          <mxGeometry x="60" width="60" height="40" as="geometry" />
        </mxCell>
        <mxCell id="9Mq8vIHb-vWuUOVEYLkd-198" value="160" style="shape=partialRectangle;html=1;whiteSpace=wrap;connectable=0;fillColor=none;top=0;left=0;bottom=0;right=0;overflow=hidden;" vertex="1" parent="9Mq8vIHb-vWuUOVEYLkd-195">
          <mxGeometry x="120" width="60" height="40" as="geometry" />
        </mxCell>
        <mxCell id="9Mq8vIHb-vWuUOVEYLkd-212" value="" style="shape=table;html=1;whiteSpace=wrap;startSize=0;container=1;collapsible=0;childLayout=tableLayout;" vertex="1" parent="1">
          <mxGeometry x="1480" y="440" width="180" height="120" as="geometry" />
        </mxCell>
        <mxCell id="9Mq8vIHb-vWuUOVEYLkd-213" value="" style="shape=partialRectangle;html=1;whiteSpace=wrap;collapsible=0;dropTarget=0;pointerEvents=0;fillColor=none;top=0;left=0;bottom=0;right=0;points=[[0,0.5],[1,0.5]];portConstraint=eastwest;" vertex="1" parent="9Mq8vIHb-vWuUOVEYLkd-212">
          <mxGeometry width="180" height="40" as="geometry" />
        </mxCell>
        <mxCell id="9Mq8vIHb-vWuUOVEYLkd-214" value="160" style="shape=partialRectangle;html=1;whiteSpace=wrap;connectable=0;fillColor=none;top=0;left=0;bottom=0;right=0;overflow=hidden;" vertex="1" parent="9Mq8vIHb-vWuUOVEYLkd-213">
          <mxGeometry width="60" height="40" as="geometry" />
        </mxCell>
        <mxCell id="9Mq8vIHb-vWuUOVEYLkd-215" value="40" style="shape=partialRectangle;html=1;whiteSpace=wrap;connectable=0;fillColor=none;top=0;left=0;bottom=0;right=0;overflow=hidden;" vertex="1" parent="9Mq8vIHb-vWuUOVEYLkd-213">
          <mxGeometry x="60" width="60" height="40" as="geometry" />
        </mxCell>
        <mxCell id="9Mq8vIHb-vWuUOVEYLkd-216" value="200" style="shape=partialRectangle;html=1;whiteSpace=wrap;connectable=0;fillColor=none;top=0;left=0;bottom=0;right=0;overflow=hidden;" vertex="1" parent="9Mq8vIHb-vWuUOVEYLkd-213">
          <mxGeometry x="120" width="60" height="40" as="geometry" />
        </mxCell>
        <mxCell id="9Mq8vIHb-vWuUOVEYLkd-217" value="" style="shape=partialRectangle;html=1;whiteSpace=wrap;collapsible=0;dropTarget=0;pointerEvents=0;fillColor=none;top=0;left=0;bottom=0;right=0;points=[[0,0.5],[1,0.5]];portConstraint=eastwest;" vertex="1" parent="9Mq8vIHb-vWuUOVEYLkd-212">
          <mxGeometry y="40" width="180" height="40" as="geometry" />
        </mxCell>
        <mxCell id="9Mq8vIHb-vWuUOVEYLkd-218" value="" style="shape=partialRectangle;html=1;whiteSpace=wrap;connectable=0;fillColor=none;top=0;left=0;bottom=0;right=0;overflow=hidden;" vertex="1" parent="9Mq8vIHb-vWuUOVEYLkd-217">
          <mxGeometry width="60" height="40" as="geometry" />
        </mxCell>
        <mxCell id="9Mq8vIHb-vWuUOVEYLkd-219" value="Cloud Server Capacity Analysis" style="shape=partialRectangle;html=1;whiteSpace=wrap;connectable=0;fillColor=none;top=0;left=0;bottom=0;right=0;overflow=hidden;" vertex="1" parent="9Mq8vIHb-vWuUOVEYLkd-217">
          <mxGeometry x="60" width="60" height="40" as="geometry" />
        </mxCell>
        <mxCell id="9Mq8vIHb-vWuUOVEYLkd-220" value="" style="shape=partialRectangle;html=1;whiteSpace=wrap;connectable=0;fillColor=none;top=0;left=0;bottom=0;right=0;overflow=hidden;" vertex="1" parent="9Mq8vIHb-vWuUOVEYLkd-217">
          <mxGeometry x="120" width="60" height="40" as="geometry" />
        </mxCell>
        <mxCell id="9Mq8vIHb-vWuUOVEYLkd-221" value="" style="shape=partialRectangle;html=1;whiteSpace=wrap;collapsible=0;dropTarget=0;pointerEvents=0;fillColor=none;top=0;left=0;bottom=0;right=0;points=[[0,0.5],[1,0.5]];portConstraint=eastwest;" vertex="1" parent="9Mq8vIHb-vWuUOVEYLkd-212">
          <mxGeometry y="80" width="180" height="40" as="geometry" />
        </mxCell>
        <mxCell id="9Mq8vIHb-vWuUOVEYLkd-222" value="160" style="shape=partialRectangle;html=1;whiteSpace=wrap;connectable=0;fillColor=none;top=0;left=0;bottom=0;right=0;overflow=hidden;" vertex="1" parent="9Mq8vIHb-vWuUOVEYLkd-221">
          <mxGeometry width="60" height="40" as="geometry" />
        </mxCell>
        <mxCell id="9Mq8vIHb-vWuUOVEYLkd-223" value="0" style="shape=partialRectangle;html=1;whiteSpace=wrap;connectable=0;fillColor=none;top=0;left=0;bottom=0;right=0;overflow=hidden;" vertex="1" parent="9Mq8vIHb-vWuUOVEYLkd-221">
          <mxGeometry x="60" width="60" height="40" as="geometry" />
        </mxCell>
        <mxCell id="9Mq8vIHb-vWuUOVEYLkd-224" value="200" style="shape=partialRectangle;html=1;whiteSpace=wrap;connectable=0;fillColor=none;top=0;left=0;bottom=0;right=0;overflow=hidden;" vertex="1" parent="9Mq8vIHb-vWuUOVEYLkd-221">
          <mxGeometry x="120" width="60" height="40" as="geometry" />
        </mxCell>
        <mxCell id="9Mq8vIHb-vWuUOVEYLkd-225" value="" style="shape=table;html=1;whiteSpace=wrap;startSize=0;container=1;collapsible=0;childLayout=tableLayout;" vertex="1" parent="1">
          <mxGeometry x="1760" y="440" width="180" height="120" as="geometry" />
        </mxCell>
        <mxCell id="9Mq8vIHb-vWuUOVEYLkd-226" value="" style="shape=partialRectangle;html=1;whiteSpace=wrap;collapsible=0;dropTarget=0;pointerEvents=0;fillColor=none;top=0;left=0;bottom=0;right=0;points=[[0,0.5],[1,0.5]];portConstraint=eastwest;" vertex="1" parent="9Mq8vIHb-vWuUOVEYLkd-225">
          <mxGeometry width="180" height="40" as="geometry" />
        </mxCell>
        <mxCell id="9Mq8vIHb-vWuUOVEYLkd-227" value="200" style="shape=partialRectangle;html=1;whiteSpace=wrap;connectable=0;fillColor=none;top=0;left=0;bottom=0;right=0;overflow=hidden;" vertex="1" parent="9Mq8vIHb-vWuUOVEYLkd-226">
          <mxGeometry width="60" height="40" as="geometry" />
        </mxCell>
        <mxCell id="9Mq8vIHb-vWuUOVEYLkd-228" value="40" style="shape=partialRectangle;html=1;whiteSpace=wrap;connectable=0;fillColor=none;top=0;left=0;bottom=0;right=0;overflow=hidden;" vertex="1" parent="9Mq8vIHb-vWuUOVEYLkd-226">
          <mxGeometry x="60" width="60" height="40" as="geometry" />
        </mxCell>
        <mxCell id="9Mq8vIHb-vWuUOVEYLkd-229" value="240" style="shape=partialRectangle;html=1;whiteSpace=wrap;connectable=0;fillColor=none;top=0;left=0;bottom=0;right=0;overflow=hidden;" vertex="1" parent="9Mq8vIHb-vWuUOVEYLkd-226">
          <mxGeometry x="120" width="60" height="40" as="geometry" />
        </mxCell>
        <mxCell id="9Mq8vIHb-vWuUOVEYLkd-230" value="" style="shape=partialRectangle;html=1;whiteSpace=wrap;collapsible=0;dropTarget=0;pointerEvents=0;fillColor=none;top=0;left=0;bottom=0;right=0;points=[[0,0.5],[1,0.5]];portConstraint=eastwest;" vertex="1" parent="9Mq8vIHb-vWuUOVEYLkd-225">
          <mxGeometry y="40" width="180" height="40" as="geometry" />
        </mxCell>
        <mxCell id="9Mq8vIHb-vWuUOVEYLkd-231" value="" style="shape=partialRectangle;html=1;whiteSpace=wrap;connectable=0;fillColor=none;top=0;left=0;bottom=0;right=0;overflow=hidden;" vertex="1" parent="9Mq8vIHb-vWuUOVEYLkd-230">
          <mxGeometry width="60" height="40" as="geometry" />
        </mxCell>
        <mxCell id="9Mq8vIHb-vWuUOVEYLkd-232" value="Backend development" style="shape=partialRectangle;html=1;whiteSpace=wrap;connectable=0;fillColor=none;top=0;left=0;bottom=0;right=0;overflow=hidden;" vertex="1" parent="9Mq8vIHb-vWuUOVEYLkd-230">
          <mxGeometry x="60" width="60" height="40" as="geometry" />
        </mxCell>
        <mxCell id="9Mq8vIHb-vWuUOVEYLkd-233" value="" style="shape=partialRectangle;html=1;whiteSpace=wrap;connectable=0;fillColor=none;top=0;left=0;bottom=0;right=0;overflow=hidden;" vertex="1" parent="9Mq8vIHb-vWuUOVEYLkd-230">
          <mxGeometry x="120" width="60" height="40" as="geometry" />
        </mxCell>
        <mxCell id="9Mq8vIHb-vWuUOVEYLkd-234" value="" style="shape=partialRectangle;html=1;whiteSpace=wrap;collapsible=0;dropTarget=0;pointerEvents=0;fillColor=none;top=0;left=0;bottom=0;right=0;points=[[0,0.5],[1,0.5]];portConstraint=eastwest;" vertex="1" parent="9Mq8vIHb-vWuUOVEYLkd-225">
          <mxGeometry y="80" width="180" height="40" as="geometry" />
        </mxCell>
        <mxCell id="9Mq8vIHb-vWuUOVEYLkd-235" value="200" style="shape=partialRectangle;html=1;whiteSpace=wrap;connectable=0;fillColor=none;top=0;left=0;bottom=0;right=0;overflow=hidden;" vertex="1" parent="9Mq8vIHb-vWuUOVEYLkd-234">
          <mxGeometry width="60" height="40" as="geometry" />
        </mxCell>
        <mxCell id="9Mq8vIHb-vWuUOVEYLkd-236" value="0" style="shape=partialRectangle;html=1;whiteSpace=wrap;connectable=0;fillColor=none;top=0;left=0;bottom=0;right=0;overflow=hidden;" vertex="1" parent="9Mq8vIHb-vWuUOVEYLkd-234">
          <mxGeometry x="60" width="60" height="40" as="geometry" />
        </mxCell>
        <mxCell id="9Mq8vIHb-vWuUOVEYLkd-237" value="240" style="shape=partialRectangle;html=1;whiteSpace=wrap;connectable=0;fillColor=none;top=0;left=0;bottom=0;right=0;overflow=hidden;" vertex="1" parent="9Mq8vIHb-vWuUOVEYLkd-234">
          <mxGeometry x="120" width="60" height="40" as="geometry" />
        </mxCell>
        <mxCell id="9Mq8vIHb-vWuUOVEYLkd-238" value="" style="shape=table;html=1;whiteSpace=wrap;startSize=0;container=1;collapsible=0;childLayout=tableLayout;" vertex="1" parent="1">
          <mxGeometry x="2040" y="440" width="180" height="120" as="geometry" />
        </mxCell>
        <mxCell id="9Mq8vIHb-vWuUOVEYLkd-239" value="" style="shape=partialRectangle;html=1;whiteSpace=wrap;collapsible=0;dropTarget=0;pointerEvents=0;fillColor=none;top=0;left=0;bottom=0;right=0;points=[[0,0.5],[1,0.5]];portConstraint=eastwest;" vertex="1" parent="9Mq8vIHb-vWuUOVEYLkd-238">
          <mxGeometry width="180" height="40" as="geometry" />
        </mxCell>
        <mxCell id="9Mq8vIHb-vWuUOVEYLkd-240" value="240" style="shape=partialRectangle;html=1;whiteSpace=wrap;connectable=0;fillColor=none;top=0;left=0;bottom=0;right=0;overflow=hidden;" vertex="1" parent="9Mq8vIHb-vWuUOVEYLkd-239">
          <mxGeometry width="60" height="40" as="geometry" />
        </mxCell>
        <mxCell id="9Mq8vIHb-vWuUOVEYLkd-241" value="40" style="shape=partialRectangle;html=1;whiteSpace=wrap;connectable=0;fillColor=none;top=0;left=0;bottom=0;right=0;overflow=hidden;" vertex="1" parent="9Mq8vIHb-vWuUOVEYLkd-239">
          <mxGeometry x="60" width="60" height="40" as="geometry" />
        </mxCell>
        <mxCell id="9Mq8vIHb-vWuUOVEYLkd-242" value="280" style="shape=partialRectangle;html=1;whiteSpace=wrap;connectable=0;fillColor=none;top=0;left=0;bottom=0;right=0;overflow=hidden;" vertex="1" parent="9Mq8vIHb-vWuUOVEYLkd-239">
          <mxGeometry x="120" width="60" height="40" as="geometry" />
        </mxCell>
        <mxCell id="9Mq8vIHb-vWuUOVEYLkd-243" value="" style="shape=partialRectangle;html=1;whiteSpace=wrap;collapsible=0;dropTarget=0;pointerEvents=0;fillColor=none;top=0;left=0;bottom=0;right=0;points=[[0,0.5],[1,0.5]];portConstraint=eastwest;" vertex="1" parent="9Mq8vIHb-vWuUOVEYLkd-238">
          <mxGeometry y="40" width="180" height="40" as="geometry" />
        </mxCell>
        <mxCell id="9Mq8vIHb-vWuUOVEYLkd-244" value="" style="shape=partialRectangle;html=1;whiteSpace=wrap;connectable=0;fillColor=none;top=0;left=0;bottom=0;right=0;overflow=hidden;" vertex="1" parent="9Mq8vIHb-vWuUOVEYLkd-243">
          <mxGeometry width="60" height="40" as="geometry" />
        </mxCell>
        <mxCell id="9Mq8vIHb-vWuUOVEYLkd-245" value="API" style="shape=partialRectangle;html=1;whiteSpace=wrap;connectable=0;fillColor=none;top=0;left=0;bottom=0;right=0;overflow=hidden;" vertex="1" parent="9Mq8vIHb-vWuUOVEYLkd-243">
          <mxGeometry x="60" width="60" height="40" as="geometry" />
        </mxCell>
        <mxCell id="9Mq8vIHb-vWuUOVEYLkd-246" value="" style="shape=partialRectangle;html=1;whiteSpace=wrap;connectable=0;fillColor=none;top=0;left=0;bottom=0;right=0;overflow=hidden;" vertex="1" parent="9Mq8vIHb-vWuUOVEYLkd-243">
          <mxGeometry x="120" width="60" height="40" as="geometry" />
        </mxCell>
        <mxCell id="9Mq8vIHb-vWuUOVEYLkd-247" value="" style="shape=partialRectangle;html=1;whiteSpace=wrap;collapsible=0;dropTarget=0;pointerEvents=0;fillColor=none;top=0;left=0;bottom=0;right=0;points=[[0,0.5],[1,0.5]];portConstraint=eastwest;" vertex="1" parent="9Mq8vIHb-vWuUOVEYLkd-238">
          <mxGeometry y="80" width="180" height="40" as="geometry" />
        </mxCell>
        <mxCell id="9Mq8vIHb-vWuUOVEYLkd-248" value="240" style="shape=partialRectangle;html=1;whiteSpace=wrap;connectable=0;fillColor=none;top=0;left=0;bottom=0;right=0;overflow=hidden;" vertex="1" parent="9Mq8vIHb-vWuUOVEYLkd-247">
          <mxGeometry width="60" height="40" as="geometry" />
        </mxCell>
        <mxCell id="9Mq8vIHb-vWuUOVEYLkd-249" value="0" style="shape=partialRectangle;html=1;whiteSpace=wrap;connectable=0;fillColor=none;top=0;left=0;bottom=0;right=0;overflow=hidden;" vertex="1" parent="9Mq8vIHb-vWuUOVEYLkd-247">
          <mxGeometry x="60" width="60" height="40" as="geometry" />
        </mxCell>
        <mxCell id="9Mq8vIHb-vWuUOVEYLkd-250" value="280" style="shape=partialRectangle;html=1;whiteSpace=wrap;connectable=0;fillColor=none;top=0;left=0;bottom=0;right=0;overflow=hidden;" vertex="1" parent="9Mq8vIHb-vWuUOVEYLkd-247">
          <mxGeometry x="120" width="60" height="40" as="geometry" />
        </mxCell>
        <mxCell id="9Mq8vIHb-vWuUOVEYLkd-251" value="" style="endArrow=classic;html=1;entryX=0;entryY=0.5;entryDx=0;entryDy=0;exitX=1;exitY=0.5;exitDx=0;exitDy=0;" edge="1" parent="1" source="9Mq8vIHb-vWuUOVEYLkd-165" target="9Mq8vIHb-vWuUOVEYLkd-178">
          <mxGeometry width="50" height="50" relative="1" as="geometry">
            <mxPoint x="740" y="620" as="sourcePoint" />
            <mxPoint x="790" y="570" as="targetPoint" />
          </mxGeometry>
        </mxCell>
        <mxCell id="9Mq8vIHb-vWuUOVEYLkd-252" value="" style="endArrow=classic;html=1;exitX=1;exitY=0.5;exitDx=0;exitDy=0;" edge="1" parent="1" source="9Mq8vIHb-vWuUOVEYLkd-178">
          <mxGeometry width="50" height="50" relative="1" as="geometry">
            <mxPoint x="1160" y="620" as="sourcePoint" />
            <mxPoint x="1200" y="500" as="targetPoint" />
          </mxGeometry>
        </mxCell>
        <mxCell id="9Mq8vIHb-vWuUOVEYLkd-253" value="" style="endArrow=classic;html=1;exitX=1;exitY=0.5;exitDx=0;exitDy=0;entryX=0;entryY=0.5;entryDx=0;entryDy=0;" edge="1" parent="1" source="9Mq8vIHb-vWuUOVEYLkd-191" target="9Mq8vIHb-vWuUOVEYLkd-217">
          <mxGeometry width="50" height="50" relative="1" as="geometry">
            <mxPoint x="1500" y="620" as="sourcePoint" />
            <mxPoint x="1550" y="570" as="targetPoint" />
          </mxGeometry>
        </mxCell>
        <mxCell id="9Mq8vIHb-vWuUOVEYLkd-254" value="" style="endArrow=classic;html=1;exitX=1;exitY=0.5;exitDx=0;exitDy=0;entryX=0;entryY=0.5;entryDx=0;entryDy=0;" edge="1" parent="1" source="9Mq8vIHb-vWuUOVEYLkd-217" target="9Mq8vIHb-vWuUOVEYLkd-230">
          <mxGeometry width="50" height="50" relative="1" as="geometry">
            <mxPoint x="1820" y="620" as="sourcePoint" />
            <mxPoint x="1870" y="570" as="targetPoint" />
          </mxGeometry>
        </mxCell>
        <mxCell id="9Mq8vIHb-vWuUOVEYLkd-255" value="" style="endArrow=classic;html=1;exitX=1;exitY=0.5;exitDx=0;exitDy=0;entryX=0;entryY=0.5;entryDx=0;entryDy=0;" edge="1" parent="1" source="9Mq8vIHb-vWuUOVEYLkd-230" target="9Mq8vIHb-vWuUOVEYLkd-243">
          <mxGeometry width="50" height="50" relative="1" as="geometry">
            <mxPoint x="1820" y="620" as="sourcePoint" />
            <mxPoint x="1870" y="570" as="targetPoint" />
          </mxGeometry>
        </mxCell>
        <mxCell id="9Mq8vIHb-vWuUOVEYLkd-256" value="" style="endArrow=classic;html=1;exitX=1;exitY=0.5;exitDx=0;exitDy=0;entryX=0;entryY=0.5;entryDx=0;entryDy=0;" edge="1" parent="1" source="9Mq8vIHb-vWuUOVEYLkd-87" target="9Mq8vIHb-vWuUOVEYLkd-100">
          <mxGeometry width="50" height="50" relative="1" as="geometry">
            <mxPoint x="710" y="630" as="sourcePoint" />
            <mxPoint x="760" y="580" as="targetPoint" />
          </mxGeometry>
        </mxCell>
        <mxCell id="9Mq8vIHb-vWuUOVEYLkd-257" value="" style="endArrow=classic;html=1;exitX=1;exitY=0.5;exitDx=0;exitDy=0;entryX=0;entryY=0.5;entryDx=0;entryDy=0;" edge="1" parent="1" source="9Mq8vIHb-vWuUOVEYLkd-100" target="9Mq8vIHb-vWuUOVEYLkd-113">
          <mxGeometry width="50" height="50" relative="1" as="geometry">
            <mxPoint x="1180" y="630" as="sourcePoint" />
            <mxPoint x="1230" y="580" as="targetPoint" />
          </mxGeometry>
        </mxCell>
        <mxCell id="9Mq8vIHb-vWuUOVEYLkd-258" value="" style="endArrow=classic;html=1;exitX=1;exitY=0.5;exitDx=0;exitDy=0;entryX=0;entryY=0.5;entryDx=0;entryDy=0;" edge="1" parent="1" source="9Mq8vIHb-vWuUOVEYLkd-113" target="9Mq8vIHb-vWuUOVEYLkd-126">
          <mxGeometry width="50" height="50" relative="1" as="geometry">
            <mxPoint x="1510" y="630" as="sourcePoint" />
            <mxPoint x="1560" y="580" as="targetPoint" />
          </mxGeometry>
        </mxCell>
        <mxCell id="9Mq8vIHb-vWuUOVEYLkd-259" value="" style="endArrow=classic;html=1;exitX=1;exitY=0.5;exitDx=0;exitDy=0;entryX=0;entryY=0.5;entryDx=0;entryDy=0;" edge="1" parent="1" source="9Mq8vIHb-vWuUOVEYLkd-126" target="9Mq8vIHb-vWuUOVEYLkd-139">
          <mxGeometry width="50" height="50" relative="1" as="geometry">
            <mxPoint x="1510" y="630" as="sourcePoint" />
            <mxPoint x="1560" y="580" as="targetPoint" />
          </mxGeometry>
        </mxCell>
        <mxCell id="9Mq8vIHb-vWuUOVEYLkd-260" value="" style="shape=table;html=1;whiteSpace=wrap;startSize=0;container=1;collapsible=0;childLayout=tableLayout;" vertex="1" parent="1">
          <mxGeometry x="2280" y="240" width="180" height="120" as="geometry" />
        </mxCell>
        <mxCell id="9Mq8vIHb-vWuUOVEYLkd-261" value="" style="shape=partialRectangle;html=1;whiteSpace=wrap;collapsible=0;dropTarget=0;pointerEvents=0;fillColor=none;top=0;left=0;bottom=0;right=0;points=[[0,0.5],[1,0.5]];portConstraint=eastwest;" vertex="1" parent="9Mq8vIHb-vWuUOVEYLkd-260">
          <mxGeometry width="180" height="40" as="geometry" />
        </mxCell>
        <mxCell id="9Mq8vIHb-vWuUOVEYLkd-262" value="280" style="shape=partialRectangle;html=1;whiteSpace=wrap;connectable=0;fillColor=none;top=0;left=0;bottom=0;right=0;overflow=hidden;" vertex="1" parent="9Mq8vIHb-vWuUOVEYLkd-261">
          <mxGeometry width="60" height="40" as="geometry" />
        </mxCell>
        <mxCell id="9Mq8vIHb-vWuUOVEYLkd-263" value="40" style="shape=partialRectangle;html=1;whiteSpace=wrap;connectable=0;fillColor=none;top=0;left=0;bottom=0;right=0;overflow=hidden;" vertex="1" parent="9Mq8vIHb-vWuUOVEYLkd-261">
          <mxGeometry x="60" width="60" height="40" as="geometry" />
        </mxCell>
        <mxCell id="9Mq8vIHb-vWuUOVEYLkd-264" value="320" style="shape=partialRectangle;html=1;whiteSpace=wrap;connectable=0;fillColor=none;top=0;left=0;bottom=0;right=0;overflow=hidden;" vertex="1" parent="9Mq8vIHb-vWuUOVEYLkd-261">
          <mxGeometry x="120" width="60" height="40" as="geometry" />
        </mxCell>
        <mxCell id="9Mq8vIHb-vWuUOVEYLkd-265" value="" style="shape=partialRectangle;html=1;whiteSpace=wrap;collapsible=0;dropTarget=0;pointerEvents=0;fillColor=none;top=0;left=0;bottom=0;right=0;points=[[0,0.5],[1,0.5]];portConstraint=eastwest;" vertex="1" parent="9Mq8vIHb-vWuUOVEYLkd-260">
          <mxGeometry y="40" width="180" height="40" as="geometry" />
        </mxCell>
        <mxCell id="9Mq8vIHb-vWuUOVEYLkd-266" value="" style="shape=partialRectangle;html=1;whiteSpace=wrap;connectable=0;fillColor=none;top=0;left=0;bottom=0;right=0;overflow=hidden;" vertex="1" parent="9Mq8vIHb-vWuUOVEYLkd-265">
          <mxGeometry width="60" height="40" as="geometry" />
        </mxCell>
        <mxCell id="9Mq8vIHb-vWuUOVEYLkd-267" value="Data Warehouse" style="shape=partialRectangle;html=1;whiteSpace=wrap;connectable=0;fillColor=none;top=0;left=0;bottom=0;right=0;overflow=hidden;flipH=1;" vertex="1" parent="9Mq8vIHb-vWuUOVEYLkd-265">
          <mxGeometry x="60" width="60" height="40" as="geometry" />
        </mxCell>
        <mxCell id="9Mq8vIHb-vWuUOVEYLkd-268" value="" style="shape=partialRectangle;html=1;whiteSpace=wrap;connectable=0;fillColor=none;top=0;left=0;bottom=0;right=0;overflow=hidden;flipH=0;flipV=1;" vertex="1" parent="9Mq8vIHb-vWuUOVEYLkd-265">
          <mxGeometry x="120" width="60" height="40" as="geometry" />
        </mxCell>
        <mxCell id="9Mq8vIHb-vWuUOVEYLkd-269" value="" style="shape=partialRectangle;html=1;whiteSpace=wrap;collapsible=0;dropTarget=0;pointerEvents=0;fillColor=none;top=0;left=0;bottom=0;right=0;points=[[0,0.5],[1,0.5]];portConstraint=eastwest;" vertex="1" parent="9Mq8vIHb-vWuUOVEYLkd-260">
          <mxGeometry y="80" width="180" height="40" as="geometry" />
        </mxCell>
        <mxCell id="9Mq8vIHb-vWuUOVEYLkd-270" value="280" style="shape=partialRectangle;html=1;whiteSpace=wrap;connectable=0;fillColor=none;top=0;left=0;bottom=0;right=0;overflow=hidden;" vertex="1" parent="9Mq8vIHb-vWuUOVEYLkd-269">
          <mxGeometry width="60" height="40" as="geometry" />
        </mxCell>
        <mxCell id="9Mq8vIHb-vWuUOVEYLkd-271" value="0" style="shape=partialRectangle;html=1;whiteSpace=wrap;connectable=0;fillColor=none;top=0;left=0;bottom=0;right=0;overflow=hidden;" vertex="1" parent="9Mq8vIHb-vWuUOVEYLkd-269">
          <mxGeometry x="60" width="60" height="40" as="geometry" />
        </mxCell>
        <mxCell id="9Mq8vIHb-vWuUOVEYLkd-272" value="320" style="shape=partialRectangle;html=1;whiteSpace=wrap;connectable=0;fillColor=none;top=0;left=0;bottom=0;right=0;overflow=hidden;" vertex="1" parent="9Mq8vIHb-vWuUOVEYLkd-269">
          <mxGeometry x="120" width="60" height="40" as="geometry" />
        </mxCell>
        <mxCell id="9Mq8vIHb-vWuUOVEYLkd-273" value="" style="shape=table;html=1;whiteSpace=wrap;startSize=0;container=1;collapsible=0;childLayout=tableLayout;" vertex="1" parent="1">
          <mxGeometry x="2560" y="240" width="180" height="120" as="geometry" />
        </mxCell>
        <mxCell id="9Mq8vIHb-vWuUOVEYLkd-274" value="" style="shape=partialRectangle;html=1;whiteSpace=wrap;collapsible=0;dropTarget=0;pointerEvents=0;fillColor=none;top=0;left=0;bottom=0;right=0;points=[[0,0.5],[1,0.5]];portConstraint=eastwest;" vertex="1" parent="9Mq8vIHb-vWuUOVEYLkd-273">
          <mxGeometry width="180" height="40" as="geometry" />
        </mxCell>
        <mxCell id="9Mq8vIHb-vWuUOVEYLkd-275" value="320" style="shape=partialRectangle;html=1;whiteSpace=wrap;connectable=0;fillColor=none;top=0;left=0;bottom=0;right=0;overflow=hidden;" vertex="1" parent="9Mq8vIHb-vWuUOVEYLkd-274">
          <mxGeometry width="60" height="40" as="geometry" />
        </mxCell>
        <mxCell id="9Mq8vIHb-vWuUOVEYLkd-276" value="80" style="shape=partialRectangle;html=1;whiteSpace=wrap;connectable=0;fillColor=none;top=0;left=0;bottom=0;right=0;overflow=hidden;" vertex="1" parent="9Mq8vIHb-vWuUOVEYLkd-274">
          <mxGeometry x="60" width="60" height="40" as="geometry" />
        </mxCell>
        <mxCell id="9Mq8vIHb-vWuUOVEYLkd-277" value="400" style="shape=partialRectangle;html=1;whiteSpace=wrap;connectable=0;fillColor=none;top=0;left=0;bottom=0;right=0;overflow=hidden;" vertex="1" parent="9Mq8vIHb-vWuUOVEYLkd-274">
          <mxGeometry x="120" width="60" height="40" as="geometry" />
        </mxCell>
        <mxCell id="9Mq8vIHb-vWuUOVEYLkd-278" value="" style="shape=partialRectangle;html=1;whiteSpace=wrap;collapsible=0;dropTarget=0;pointerEvents=0;fillColor=none;top=0;left=0;bottom=0;right=0;points=[[0,0.5],[1,0.5]];portConstraint=eastwest;" vertex="1" parent="9Mq8vIHb-vWuUOVEYLkd-273">
          <mxGeometry y="40" width="180" height="40" as="geometry" />
        </mxCell>
        <mxCell id="9Mq8vIHb-vWuUOVEYLkd-279" value="" style="shape=partialRectangle;html=1;whiteSpace=wrap;connectable=0;fillColor=none;top=0;left=0;bottom=0;right=0;overflow=hidden;" vertex="1" parent="9Mq8vIHb-vWuUOVEYLkd-278">
          <mxGeometry width="60" height="40" as="geometry" />
        </mxCell>
        <mxCell id="9Mq8vIHb-vWuUOVEYLkd-280" value="Data Pipeline" style="shape=partialRectangle;html=1;whiteSpace=wrap;connectable=0;fillColor=none;top=0;left=0;bottom=0;right=0;overflow=hidden;" vertex="1" parent="9Mq8vIHb-vWuUOVEYLkd-278">
          <mxGeometry x="60" width="60" height="40" as="geometry" />
        </mxCell>
        <mxCell id="9Mq8vIHb-vWuUOVEYLkd-281" value="" style="shape=partialRectangle;html=1;whiteSpace=wrap;connectable=0;fillColor=none;top=0;left=0;bottom=0;right=0;overflow=hidden;" vertex="1" parent="9Mq8vIHb-vWuUOVEYLkd-278">
          <mxGeometry x="120" width="60" height="40" as="geometry" />
        </mxCell>
        <mxCell id="9Mq8vIHb-vWuUOVEYLkd-282" value="" style="shape=partialRectangle;html=1;whiteSpace=wrap;collapsible=0;dropTarget=0;pointerEvents=0;fillColor=none;top=0;left=0;bottom=0;right=0;points=[[0,0.5],[1,0.5]];portConstraint=eastwest;" vertex="1" parent="9Mq8vIHb-vWuUOVEYLkd-273">
          <mxGeometry y="80" width="180" height="40" as="geometry" />
        </mxCell>
        <mxCell id="9Mq8vIHb-vWuUOVEYLkd-283" value="320" style="shape=partialRectangle;html=1;whiteSpace=wrap;connectable=0;fillColor=none;top=0;left=0;bottom=0;right=0;overflow=hidden;" vertex="1" parent="9Mq8vIHb-vWuUOVEYLkd-282">
          <mxGeometry width="60" height="40" as="geometry" />
        </mxCell>
        <mxCell id="9Mq8vIHb-vWuUOVEYLkd-284" value="0" style="shape=partialRectangle;html=1;whiteSpace=wrap;connectable=0;fillColor=none;top=0;left=0;bottom=0;right=0;overflow=hidden;" vertex="1" parent="9Mq8vIHb-vWuUOVEYLkd-282">
          <mxGeometry x="60" width="60" height="40" as="geometry" />
        </mxCell>
        <mxCell id="9Mq8vIHb-vWuUOVEYLkd-285" value="400" style="shape=partialRectangle;html=1;whiteSpace=wrap;connectable=0;fillColor=none;top=0;left=0;bottom=0;right=0;overflow=hidden;" vertex="1" parent="9Mq8vIHb-vWuUOVEYLkd-282">
          <mxGeometry x="120" width="60" height="40" as="geometry" />
        </mxCell>
        <mxCell id="9Mq8vIHb-vWuUOVEYLkd-286" value="" style="shape=table;html=1;whiteSpace=wrap;startSize=0;container=1;collapsible=0;childLayout=tableLayout;" vertex="1" parent="1">
          <mxGeometry x="2840" y="240" width="180" height="120" as="geometry" />
        </mxCell>
        <mxCell id="9Mq8vIHb-vWuUOVEYLkd-287" value="" style="shape=partialRectangle;html=1;whiteSpace=wrap;collapsible=0;dropTarget=0;pointerEvents=0;fillColor=none;top=0;left=0;bottom=0;right=0;points=[[0,0.5],[1,0.5]];portConstraint=eastwest;" vertex="1" parent="9Mq8vIHb-vWuUOVEYLkd-286">
          <mxGeometry width="180" height="40" as="geometry" />
        </mxCell>
        <mxCell id="9Mq8vIHb-vWuUOVEYLkd-288" value="400" style="shape=partialRectangle;html=1;whiteSpace=wrap;connectable=0;fillColor=none;top=0;left=0;bottom=0;right=0;overflow=hidden;" vertex="1" parent="9Mq8vIHb-vWuUOVEYLkd-287">
          <mxGeometry width="60" height="40" as="geometry" />
        </mxCell>
        <mxCell id="9Mq8vIHb-vWuUOVEYLkd-289" value="40" style="shape=partialRectangle;html=1;whiteSpace=wrap;connectable=0;fillColor=none;top=0;left=0;bottom=0;right=0;overflow=hidden;" vertex="1" parent="9Mq8vIHb-vWuUOVEYLkd-287">
          <mxGeometry x="60" width="60" height="40" as="geometry" />
        </mxCell>
        <mxCell id="9Mq8vIHb-vWuUOVEYLkd-290" value="440" style="shape=partialRectangle;html=1;whiteSpace=wrap;connectable=0;fillColor=none;top=0;left=0;bottom=0;right=0;overflow=hidden;" vertex="1" parent="9Mq8vIHb-vWuUOVEYLkd-287">
          <mxGeometry x="120" width="60" height="40" as="geometry" />
        </mxCell>
        <mxCell id="9Mq8vIHb-vWuUOVEYLkd-291" value="" style="shape=partialRectangle;html=1;whiteSpace=wrap;collapsible=0;dropTarget=0;pointerEvents=0;fillColor=none;top=0;left=0;bottom=0;right=0;points=[[0,0.5],[1,0.5]];portConstraint=eastwest;" vertex="1" parent="9Mq8vIHb-vWuUOVEYLkd-286">
          <mxGeometry y="40" width="180" height="40" as="geometry" />
        </mxCell>
        <mxCell id="9Mq8vIHb-vWuUOVEYLkd-292" value="" style="shape=partialRectangle;html=1;whiteSpace=wrap;connectable=0;fillColor=none;top=0;left=0;bottom=0;right=0;overflow=hidden;" vertex="1" parent="9Mq8vIHb-vWuUOVEYLkd-291">
          <mxGeometry width="60" height="40" as="geometry" />
        </mxCell>
        <mxCell id="9Mq8vIHb-vWuUOVEYLkd-293" value="Objective Design" style="shape=partialRectangle;html=1;whiteSpace=wrap;connectable=0;fillColor=none;top=0;left=0;bottom=0;right=0;overflow=hidden;" vertex="1" parent="9Mq8vIHb-vWuUOVEYLkd-291">
          <mxGeometry x="60" width="60" height="40" as="geometry" />
        </mxCell>
        <mxCell id="9Mq8vIHb-vWuUOVEYLkd-294" value="" style="shape=partialRectangle;html=1;whiteSpace=wrap;connectable=0;fillColor=none;top=0;left=0;bottom=0;right=0;overflow=hidden;" vertex="1" parent="9Mq8vIHb-vWuUOVEYLkd-291">
          <mxGeometry x="120" width="60" height="40" as="geometry" />
        </mxCell>
        <mxCell id="9Mq8vIHb-vWuUOVEYLkd-295" value="" style="shape=partialRectangle;html=1;whiteSpace=wrap;collapsible=0;dropTarget=0;pointerEvents=0;fillColor=none;top=0;left=0;bottom=0;right=0;points=[[0,0.5],[1,0.5]];portConstraint=eastwest;" vertex="1" parent="9Mq8vIHb-vWuUOVEYLkd-286">
          <mxGeometry y="80" width="180" height="40" as="geometry" />
        </mxCell>
        <mxCell id="9Mq8vIHb-vWuUOVEYLkd-296" value="400" style="shape=partialRectangle;html=1;whiteSpace=wrap;connectable=0;fillColor=none;top=0;left=0;bottom=0;right=0;overflow=hidden;" vertex="1" parent="9Mq8vIHb-vWuUOVEYLkd-295">
          <mxGeometry width="60" height="40" as="geometry" />
        </mxCell>
        <mxCell id="9Mq8vIHb-vWuUOVEYLkd-297" value="0" style="shape=partialRectangle;html=1;whiteSpace=wrap;connectable=0;fillColor=none;top=0;left=0;bottom=0;right=0;overflow=hidden;" vertex="1" parent="9Mq8vIHb-vWuUOVEYLkd-295">
          <mxGeometry x="60" width="60" height="40" as="geometry" />
        </mxCell>
        <mxCell id="9Mq8vIHb-vWuUOVEYLkd-298" value="440" style="shape=partialRectangle;html=1;whiteSpace=wrap;connectable=0;fillColor=none;top=0;left=0;bottom=0;right=0;overflow=hidden;" vertex="1" parent="9Mq8vIHb-vWuUOVEYLkd-295">
          <mxGeometry x="120" width="60" height="40" as="geometry" />
        </mxCell>
        <mxCell id="9Mq8vIHb-vWuUOVEYLkd-299" value="" style="shape=table;html=1;whiteSpace=wrap;startSize=0;container=1;collapsible=0;childLayout=tableLayout;" vertex="1" parent="1">
          <mxGeometry x="3120" y="240" width="180" height="120" as="geometry" />
        </mxCell>
        <mxCell id="9Mq8vIHb-vWuUOVEYLkd-300" value="" style="shape=partialRectangle;html=1;whiteSpace=wrap;collapsible=0;dropTarget=0;pointerEvents=0;fillColor=none;top=0;left=0;bottom=0;right=0;points=[[0,0.5],[1,0.5]];portConstraint=eastwest;" vertex="1" parent="9Mq8vIHb-vWuUOVEYLkd-299">
          <mxGeometry width="180" height="40" as="geometry" />
        </mxCell>
        <mxCell id="9Mq8vIHb-vWuUOVEYLkd-301" value="440" style="shape=partialRectangle;html=1;whiteSpace=wrap;connectable=0;fillColor=none;top=0;left=0;bottom=0;right=0;overflow=hidden;" vertex="1" parent="9Mq8vIHb-vWuUOVEYLkd-300">
          <mxGeometry width="60" height="40" as="geometry" />
        </mxCell>
        <mxCell id="9Mq8vIHb-vWuUOVEYLkd-302" value="960" style="shape=partialRectangle;html=1;whiteSpace=wrap;connectable=0;fillColor=none;top=0;left=0;bottom=0;right=0;overflow=hidden;" vertex="1" parent="9Mq8vIHb-vWuUOVEYLkd-300">
          <mxGeometry x="60" width="60" height="40" as="geometry" />
        </mxCell>
        <mxCell id="9Mq8vIHb-vWuUOVEYLkd-303" value="1400" style="shape=partialRectangle;html=1;whiteSpace=wrap;connectable=0;fillColor=none;top=0;left=0;bottom=0;right=0;overflow=hidden;" vertex="1" parent="9Mq8vIHb-vWuUOVEYLkd-300">
          <mxGeometry x="120" width="60" height="40" as="geometry" />
        </mxCell>
        <mxCell id="9Mq8vIHb-vWuUOVEYLkd-304" value="" style="shape=partialRectangle;html=1;whiteSpace=wrap;collapsible=0;dropTarget=0;pointerEvents=0;fillColor=none;top=0;left=0;bottom=0;right=0;points=[[0,0.5],[1,0.5]];portConstraint=eastwest;" vertex="1" parent="9Mq8vIHb-vWuUOVEYLkd-299">
          <mxGeometry y="40" width="180" height="40" as="geometry" />
        </mxCell>
        <mxCell id="9Mq8vIHb-vWuUOVEYLkd-305" value="" style="shape=partialRectangle;html=1;whiteSpace=wrap;connectable=0;fillColor=none;top=0;left=0;bottom=0;right=0;overflow=hidden;" vertex="1" parent="9Mq8vIHb-vWuUOVEYLkd-304">
          <mxGeometry width="60" height="40" as="geometry" />
        </mxCell>
        <mxCell id="9Mq8vIHb-vWuUOVEYLkd-306" value="Data Model" style="shape=partialRectangle;html=1;whiteSpace=wrap;connectable=0;fillColor=none;top=0;left=0;bottom=0;right=0;overflow=hidden;" vertex="1" parent="9Mq8vIHb-vWuUOVEYLkd-304">
          <mxGeometry x="60" width="60" height="40" as="geometry" />
        </mxCell>
        <mxCell id="9Mq8vIHb-vWuUOVEYLkd-307" value="" style="shape=partialRectangle;html=1;whiteSpace=wrap;connectable=0;fillColor=none;top=0;left=0;bottom=0;right=0;overflow=hidden;" vertex="1" parent="9Mq8vIHb-vWuUOVEYLkd-304">
          <mxGeometry x="120" width="60" height="40" as="geometry" />
        </mxCell>
        <mxCell id="9Mq8vIHb-vWuUOVEYLkd-308" value="" style="shape=partialRectangle;html=1;whiteSpace=wrap;collapsible=0;dropTarget=0;pointerEvents=0;fillColor=none;top=0;left=0;bottom=0;right=0;points=[[0,0.5],[1,0.5]];portConstraint=eastwest;" vertex="1" parent="9Mq8vIHb-vWuUOVEYLkd-299">
          <mxGeometry y="80" width="180" height="40" as="geometry" />
        </mxCell>
        <mxCell id="9Mq8vIHb-vWuUOVEYLkd-309" value="440" style="shape=partialRectangle;html=1;whiteSpace=wrap;connectable=0;fillColor=none;top=0;left=0;bottom=0;right=0;overflow=hidden;" vertex="1" parent="9Mq8vIHb-vWuUOVEYLkd-308">
          <mxGeometry width="60" height="40" as="geometry" />
        </mxCell>
        <mxCell id="9Mq8vIHb-vWuUOVEYLkd-310" value="0" style="shape=partialRectangle;html=1;whiteSpace=wrap;connectable=0;fillColor=none;top=0;left=0;bottom=0;right=0;overflow=hidden;" vertex="1" parent="9Mq8vIHb-vWuUOVEYLkd-308">
          <mxGeometry x="60" width="60" height="40" as="geometry" />
        </mxCell>
        <mxCell id="9Mq8vIHb-vWuUOVEYLkd-311" value="1400" style="shape=partialRectangle;html=1;whiteSpace=wrap;connectable=0;fillColor=none;top=0;left=0;bottom=0;right=0;overflow=hidden;" vertex="1" parent="9Mq8vIHb-vWuUOVEYLkd-308">
          <mxGeometry x="120" width="60" height="40" as="geometry" />
        </mxCell>
        <mxCell id="9Mq8vIHb-vWuUOVEYLkd-312" value="" style="shape=table;html=1;whiteSpace=wrap;startSize=0;container=1;collapsible=0;childLayout=tableLayout;" vertex="1" parent="1">
          <mxGeometry x="3400" y="240" width="180" height="120" as="geometry" />
        </mxCell>
        <mxCell id="9Mq8vIHb-vWuUOVEYLkd-313" value="" style="shape=partialRectangle;html=1;whiteSpace=wrap;collapsible=0;dropTarget=0;pointerEvents=0;fillColor=none;top=0;left=0;bottom=0;right=0;points=[[0,0.5],[1,0.5]];portConstraint=eastwest;" vertex="1" parent="9Mq8vIHb-vWuUOVEYLkd-312">
          <mxGeometry width="180" height="40" as="geometry" />
        </mxCell>
        <mxCell id="9Mq8vIHb-vWuUOVEYLkd-314" value="1400" style="shape=partialRectangle;html=1;whiteSpace=wrap;connectable=0;fillColor=none;top=0;left=0;bottom=0;right=0;overflow=hidden;" vertex="1" parent="9Mq8vIHb-vWuUOVEYLkd-313">
          <mxGeometry width="60" height="40" as="geometry" />
        </mxCell>
        <mxCell id="9Mq8vIHb-vWuUOVEYLkd-315" value="40" style="shape=partialRectangle;html=1;whiteSpace=wrap;connectable=0;fillColor=none;top=0;left=0;bottom=0;right=0;overflow=hidden;" vertex="1" parent="9Mq8vIHb-vWuUOVEYLkd-313">
          <mxGeometry x="60" width="60" height="40" as="geometry" />
        </mxCell>
        <mxCell id="9Mq8vIHb-vWuUOVEYLkd-316" value="1440" style="shape=partialRectangle;html=1;whiteSpace=wrap;connectable=0;fillColor=none;top=0;left=0;bottom=0;right=0;overflow=hidden;" vertex="1" parent="9Mq8vIHb-vWuUOVEYLkd-313">
          <mxGeometry x="120" width="60" height="40" as="geometry" />
        </mxCell>
        <mxCell id="9Mq8vIHb-vWuUOVEYLkd-317" value="" style="shape=partialRectangle;html=1;whiteSpace=wrap;collapsible=0;dropTarget=0;pointerEvents=0;fillColor=none;top=0;left=0;bottom=0;right=0;points=[[0,0.5],[1,0.5]];portConstraint=eastwest;" vertex="1" parent="9Mq8vIHb-vWuUOVEYLkd-312">
          <mxGeometry y="40" width="180" height="40" as="geometry" />
        </mxCell>
        <mxCell id="9Mq8vIHb-vWuUOVEYLkd-318" value="" style="shape=partialRectangle;html=1;whiteSpace=wrap;connectable=0;fillColor=none;top=0;left=0;bottom=0;right=0;overflow=hidden;" vertex="1" parent="9Mq8vIHb-vWuUOVEYLkd-317">
          <mxGeometry width="60" height="40" as="geometry" />
        </mxCell>
        <mxCell id="9Mq8vIHb-vWuUOVEYLkd-319" value="Data interface" style="shape=partialRectangle;html=1;whiteSpace=wrap;connectable=0;fillColor=none;top=0;left=0;bottom=0;right=0;overflow=hidden;" vertex="1" parent="9Mq8vIHb-vWuUOVEYLkd-317">
          <mxGeometry x="60" width="60" height="40" as="geometry" />
        </mxCell>
        <mxCell id="9Mq8vIHb-vWuUOVEYLkd-320" value="" style="shape=partialRectangle;html=1;whiteSpace=wrap;connectable=0;fillColor=none;top=0;left=0;bottom=0;right=0;overflow=hidden;" vertex="1" parent="9Mq8vIHb-vWuUOVEYLkd-317">
          <mxGeometry x="120" width="60" height="40" as="geometry" />
        </mxCell>
        <mxCell id="9Mq8vIHb-vWuUOVEYLkd-321" value="" style="shape=partialRectangle;html=1;whiteSpace=wrap;collapsible=0;dropTarget=0;pointerEvents=0;fillColor=none;top=0;left=0;bottom=0;right=0;points=[[0,0.5],[1,0.5]];portConstraint=eastwest;" vertex="1" parent="9Mq8vIHb-vWuUOVEYLkd-312">
          <mxGeometry y="80" width="180" height="40" as="geometry" />
        </mxCell>
        <mxCell id="9Mq8vIHb-vWuUOVEYLkd-322" value="1400" style="shape=partialRectangle;html=1;whiteSpace=wrap;connectable=0;fillColor=none;top=0;left=0;bottom=0;right=0;overflow=hidden;" vertex="1" parent="9Mq8vIHb-vWuUOVEYLkd-321">
          <mxGeometry width="60" height="40" as="geometry" />
        </mxCell>
        <mxCell id="9Mq8vIHb-vWuUOVEYLkd-323" value="0" style="shape=partialRectangle;html=1;whiteSpace=wrap;connectable=0;fillColor=none;top=0;left=0;bottom=0;right=0;overflow=hidden;" vertex="1" parent="9Mq8vIHb-vWuUOVEYLkd-321">
          <mxGeometry x="60" width="60" height="40" as="geometry" />
        </mxCell>
        <mxCell id="9Mq8vIHb-vWuUOVEYLkd-324" value="1440" style="shape=partialRectangle;html=1;whiteSpace=wrap;connectable=0;fillColor=none;top=0;left=0;bottom=0;right=0;overflow=hidden;" vertex="1" parent="9Mq8vIHb-vWuUOVEYLkd-321">
          <mxGeometry x="120" width="60" height="40" as="geometry" />
        </mxCell>
        <mxCell id="9Mq8vIHb-vWuUOVEYLkd-338" value="" style="endArrow=classic;html=1;exitX=1;exitY=0.5;exitDx=0;exitDy=0;entryX=0;entryY=0.5;entryDx=0;entryDy=0;" edge="1" parent="1" source="9Mq8vIHb-vWuUOVEYLkd-265" target="9Mq8vIHb-vWuUOVEYLkd-278">
          <mxGeometry width="50" height="50" relative="1" as="geometry">
            <mxPoint x="2860" y="470" as="sourcePoint" />
            <mxPoint x="2910" y="420" as="targetPoint" />
          </mxGeometry>
        </mxCell>
        <mxCell id="9Mq8vIHb-vWuUOVEYLkd-339" value="" style="endArrow=classic;html=1;exitX=1;exitY=0.5;exitDx=0;exitDy=0;entryX=0;entryY=0.5;entryDx=0;entryDy=0;" edge="1" parent="1" source="9Mq8vIHb-vWuUOVEYLkd-278" target="9Mq8vIHb-vWuUOVEYLkd-291">
          <mxGeometry width="50" height="50" relative="1" as="geometry">
            <mxPoint x="2860" y="470" as="sourcePoint" />
            <mxPoint x="2910" y="420" as="targetPoint" />
          </mxGeometry>
        </mxCell>
        <mxCell id="9Mq8vIHb-vWuUOVEYLkd-340" value="" style="endArrow=classic;html=1;exitX=1;exitY=0.5;exitDx=0;exitDy=0;entryX=0;entryY=0.5;entryDx=0;entryDy=0;" edge="1" parent="1" source="9Mq8vIHb-vWuUOVEYLkd-291" target="9Mq8vIHb-vWuUOVEYLkd-304">
          <mxGeometry width="50" height="50" relative="1" as="geometry">
            <mxPoint x="2860" y="470" as="sourcePoint" />
            <mxPoint x="2910" y="420" as="targetPoint" />
          </mxGeometry>
        </mxCell>
        <mxCell id="9Mq8vIHb-vWuUOVEYLkd-341" value="" style="endArrow=classic;html=1;exitX=1;exitY=0.5;exitDx=0;exitDy=0;entryX=0;entryY=0.5;entryDx=0;entryDy=0;" edge="1" parent="1" source="9Mq8vIHb-vWuUOVEYLkd-304" target="9Mq8vIHb-vWuUOVEYLkd-317">
          <mxGeometry width="50" height="50" relative="1" as="geometry">
            <mxPoint x="2860" y="470" as="sourcePoint" />
            <mxPoint x="2910" y="420" as="targetPoint" />
          </mxGeometry>
        </mxCell>
        <mxCell id="9Mq8vIHb-vWuUOVEYLkd-342" value="" style="shape=table;html=1;whiteSpace=wrap;startSize=0;container=1;collapsible=0;childLayout=tableLayout;" vertex="1" parent="1">
          <mxGeometry x="3220" y="580" width="180" height="120" as="geometry" />
        </mxCell>
        <mxCell id="9Mq8vIHb-vWuUOVEYLkd-343" value="" style="shape=partialRectangle;html=1;whiteSpace=wrap;collapsible=0;dropTarget=0;pointerEvents=0;fillColor=none;top=0;left=0;bottom=0;right=0;points=[[0,0.5],[1,0.5]];portConstraint=eastwest;" vertex="1" parent="9Mq8vIHb-vWuUOVEYLkd-342">
          <mxGeometry width="180" height="40" as="geometry" />
        </mxCell>
        <mxCell id="9Mq8vIHb-vWuUOVEYLkd-344" value="1440" style="shape=partialRectangle;html=1;whiteSpace=wrap;connectable=0;fillColor=none;top=0;left=0;bottom=0;right=0;overflow=hidden;" vertex="1" parent="9Mq8vIHb-vWuUOVEYLkd-343">
          <mxGeometry width="60" height="40" as="geometry" />
        </mxCell>
        <mxCell id="9Mq8vIHb-vWuUOVEYLkd-345" value="480" style="shape=partialRectangle;html=1;whiteSpace=wrap;connectable=0;fillColor=none;top=0;left=0;bottom=0;right=0;overflow=hidden;" vertex="1" parent="9Mq8vIHb-vWuUOVEYLkd-343">
          <mxGeometry x="60" width="60" height="40" as="geometry" />
        </mxCell>
        <mxCell id="9Mq8vIHb-vWuUOVEYLkd-346" value="1920" style="shape=partialRectangle;html=1;whiteSpace=wrap;connectable=0;fillColor=none;top=0;left=0;bottom=0;right=0;overflow=hidden;" vertex="1" parent="9Mq8vIHb-vWuUOVEYLkd-343">
          <mxGeometry x="120" width="60" height="40" as="geometry" />
        </mxCell>
        <mxCell id="9Mq8vIHb-vWuUOVEYLkd-347" value="" style="shape=partialRectangle;html=1;whiteSpace=wrap;collapsible=0;dropTarget=0;pointerEvents=0;fillColor=none;top=0;left=0;bottom=0;right=0;points=[[0,0.5],[1,0.5]];portConstraint=eastwest;" vertex="1" parent="9Mq8vIHb-vWuUOVEYLkd-342">
          <mxGeometry y="40" width="180" height="40" as="geometry" />
        </mxCell>
        <mxCell id="9Mq8vIHb-vWuUOVEYLkd-348" value="" style="shape=partialRectangle;html=1;whiteSpace=wrap;connectable=0;fillColor=none;top=0;left=0;bottom=0;right=0;overflow=hidden;" vertex="1" parent="9Mq8vIHb-vWuUOVEYLkd-347">
          <mxGeometry width="60" height="40" as="geometry" />
        </mxCell>
        <mxCell id="9Mq8vIHb-vWuUOVEYLkd-349" value="Small Scale Trial" style="shape=partialRectangle;html=1;whiteSpace=wrap;connectable=0;fillColor=none;top=0;left=0;bottom=0;right=0;overflow=hidden;" vertex="1" parent="9Mq8vIHb-vWuUOVEYLkd-347">
          <mxGeometry x="60" width="60" height="40" as="geometry" />
        </mxCell>
        <mxCell id="9Mq8vIHb-vWuUOVEYLkd-350" value="" style="shape=partialRectangle;html=1;whiteSpace=wrap;connectable=0;fillColor=none;top=0;left=0;bottom=0;right=0;overflow=hidden;" vertex="1" parent="9Mq8vIHb-vWuUOVEYLkd-347">
          <mxGeometry x="120" width="60" height="40" as="geometry" />
        </mxCell>
        <mxCell id="9Mq8vIHb-vWuUOVEYLkd-351" value="" style="shape=partialRectangle;html=1;whiteSpace=wrap;collapsible=0;dropTarget=0;pointerEvents=0;fillColor=none;top=0;left=0;bottom=0;right=0;points=[[0,0.5],[1,0.5]];portConstraint=eastwest;" vertex="1" parent="9Mq8vIHb-vWuUOVEYLkd-342">
          <mxGeometry y="80" width="180" height="40" as="geometry" />
        </mxCell>
        <mxCell id="9Mq8vIHb-vWuUOVEYLkd-352" value="1440" style="shape=partialRectangle;html=1;whiteSpace=wrap;connectable=0;fillColor=none;top=0;left=0;bottom=0;right=0;overflow=hidden;" vertex="1" parent="9Mq8vIHb-vWuUOVEYLkd-351">
          <mxGeometry width="60" height="40" as="geometry" />
        </mxCell>
        <mxCell id="9Mq8vIHb-vWuUOVEYLkd-353" value="0" style="shape=partialRectangle;html=1;whiteSpace=wrap;connectable=0;fillColor=none;top=0;left=0;bottom=0;right=0;overflow=hidden;" vertex="1" parent="9Mq8vIHb-vWuUOVEYLkd-351">
          <mxGeometry x="60" width="60" height="40" as="geometry" />
        </mxCell>
        <mxCell id="9Mq8vIHb-vWuUOVEYLkd-354" value="1920" style="shape=partialRectangle;html=1;whiteSpace=wrap;connectable=0;fillColor=none;top=0;left=0;bottom=0;right=0;overflow=hidden;" vertex="1" parent="9Mq8vIHb-vWuUOVEYLkd-351">
          <mxGeometry x="120" width="60" height="40" as="geometry" />
        </mxCell>
        <mxCell id="9Mq8vIHb-vWuUOVEYLkd-355" value="" style="shape=table;html=1;whiteSpace=wrap;startSize=0;container=1;collapsible=0;childLayout=tableLayout;" vertex="1" parent="1">
          <mxGeometry x="3500" y="580" width="180" height="120" as="geometry" />
        </mxCell>
        <mxCell id="9Mq8vIHb-vWuUOVEYLkd-356" value="" style="shape=partialRectangle;html=1;whiteSpace=wrap;collapsible=0;dropTarget=0;pointerEvents=0;fillColor=none;top=0;left=0;bottom=0;right=0;points=[[0,0.5],[1,0.5]];portConstraint=eastwest;" vertex="1" parent="9Mq8vIHb-vWuUOVEYLkd-355">
          <mxGeometry width="180" height="40" as="geometry" />
        </mxCell>
        <mxCell id="9Mq8vIHb-vWuUOVEYLkd-357" value="1920" style="shape=partialRectangle;html=1;whiteSpace=wrap;connectable=0;fillColor=none;top=0;left=0;bottom=0;right=0;overflow=hidden;" vertex="1" parent="9Mq8vIHb-vWuUOVEYLkd-356">
          <mxGeometry width="60" height="40" as="geometry" />
        </mxCell>
        <mxCell id="9Mq8vIHb-vWuUOVEYLkd-358" value="960" style="shape=partialRectangle;html=1;whiteSpace=wrap;connectable=0;fillColor=none;top=0;left=0;bottom=0;right=0;overflow=hidden;" vertex="1" parent="9Mq8vIHb-vWuUOVEYLkd-356">
          <mxGeometry x="60" width="60" height="40" as="geometry" />
        </mxCell>
        <mxCell id="9Mq8vIHb-vWuUOVEYLkd-359" value="2880" style="shape=partialRectangle;html=1;whiteSpace=wrap;connectable=0;fillColor=none;top=0;left=0;bottom=0;right=0;overflow=hidden;" vertex="1" parent="9Mq8vIHb-vWuUOVEYLkd-356">
          <mxGeometry x="120" width="60" height="40" as="geometry" />
        </mxCell>
        <mxCell id="9Mq8vIHb-vWuUOVEYLkd-360" value="" style="shape=partialRectangle;html=1;whiteSpace=wrap;collapsible=0;dropTarget=0;pointerEvents=0;fillColor=none;top=0;left=0;bottom=0;right=0;points=[[0,0.5],[1,0.5]];portConstraint=eastwest;" vertex="1" parent="9Mq8vIHb-vWuUOVEYLkd-355">
          <mxGeometry y="40" width="180" height="40" as="geometry" />
        </mxCell>
        <mxCell id="9Mq8vIHb-vWuUOVEYLkd-361" value="" style="shape=partialRectangle;html=1;whiteSpace=wrap;connectable=0;fillColor=none;top=0;left=0;bottom=0;right=0;overflow=hidden;" vertex="1" parent="9Mq8vIHb-vWuUOVEYLkd-360">
          <mxGeometry width="60" height="40" as="geometry" />
        </mxCell>
        <mxCell id="9Mq8vIHb-vWuUOVEYLkd-362" value="Large Scale Trial" style="shape=partialRectangle;html=1;whiteSpace=wrap;connectable=0;fillColor=none;top=0;left=0;bottom=0;right=0;overflow=hidden;" vertex="1" parent="9Mq8vIHb-vWuUOVEYLkd-360">
          <mxGeometry x="60" width="60" height="40" as="geometry" />
        </mxCell>
        <mxCell id="9Mq8vIHb-vWuUOVEYLkd-363" value="" style="shape=partialRectangle;html=1;whiteSpace=wrap;connectable=0;fillColor=none;top=0;left=0;bottom=0;right=0;overflow=hidden;" vertex="1" parent="9Mq8vIHb-vWuUOVEYLkd-360">
          <mxGeometry x="120" width="60" height="40" as="geometry" />
        </mxCell>
        <mxCell id="9Mq8vIHb-vWuUOVEYLkd-364" value="" style="shape=partialRectangle;html=1;whiteSpace=wrap;collapsible=0;dropTarget=0;pointerEvents=0;fillColor=none;top=0;left=0;bottom=0;right=0;points=[[0,0.5],[1,0.5]];portConstraint=eastwest;" vertex="1" parent="9Mq8vIHb-vWuUOVEYLkd-355">
          <mxGeometry y="80" width="180" height="40" as="geometry" />
        </mxCell>
        <mxCell id="9Mq8vIHb-vWuUOVEYLkd-365" value="1920" style="shape=partialRectangle;html=1;whiteSpace=wrap;connectable=0;fillColor=none;top=0;left=0;bottom=0;right=0;overflow=hidden;" vertex="1" parent="9Mq8vIHb-vWuUOVEYLkd-364">
          <mxGeometry width="60" height="40" as="geometry" />
        </mxCell>
        <mxCell id="9Mq8vIHb-vWuUOVEYLkd-366" value="0" style="shape=partialRectangle;html=1;whiteSpace=wrap;connectable=0;fillColor=none;top=0;left=0;bottom=0;right=0;overflow=hidden;" vertex="1" parent="9Mq8vIHb-vWuUOVEYLkd-364">
          <mxGeometry x="60" width="60" height="40" as="geometry" />
        </mxCell>
        <mxCell id="9Mq8vIHb-vWuUOVEYLkd-367" value="2880" style="shape=partialRectangle;html=1;whiteSpace=wrap;connectable=0;fillColor=none;top=0;left=0;bottom=0;right=0;overflow=hidden;" vertex="1" parent="9Mq8vIHb-vWuUOVEYLkd-364">
          <mxGeometry x="120" width="60" height="40" as="geometry" />
        </mxCell>
        <mxCell id="9Mq8vIHb-vWuUOVEYLkd-381" value="" style="endArrow=classic;html=1;exitX=1;exitY=0.5;exitDx=0;exitDy=0;entryX=0;entryY=0.5;entryDx=0;entryDy=0;" edge="1" parent="1" source="9Mq8vIHb-vWuUOVEYLkd-347" target="9Mq8vIHb-vWuUOVEYLkd-360">
          <mxGeometry width="50" height="50" relative="1" as="geometry">
            <mxPoint x="3320" y="530" as="sourcePoint" />
            <mxPoint x="3370" y="480" as="targetPoint" />
          </mxGeometry>
        </mxCell>
        <mxCell id="9Mq8vIHb-vWuUOVEYLkd-390" value="" style="endArrow=classic;html=1;exitX=1;exitY=0.5;exitDx=0;exitDy=0;entryX=0;entryY=0.5;entryDx=0;entryDy=0;" edge="1" parent="1" source="9Mq8vIHb-vWuUOVEYLkd-317" target="9Mq8vIHb-vWuUOVEYLkd-347">
          <mxGeometry width="50" height="50" relative="1" as="geometry">
            <mxPoint x="3580" y="550" as="sourcePoint" />
            <mxPoint x="3630" y="500" as="targetPoint" />
          </mxGeometry>
        </mxCell>
        <mxCell id="9Mq8vIHb-vWuUOVEYLkd-391" value="" style="endArrow=classic;html=1;exitX=1;exitY=0.5;exitDx=0;exitDy=0;entryX=0;entryY=0.5;entryDx=0;entryDy=0;" edge="1" parent="1" source="9Mq8vIHb-vWuUOVEYLkd-243" target="9Mq8vIHb-vWuUOVEYLkd-265">
          <mxGeometry width="50" height="50" relative="1" as="geometry">
            <mxPoint x="2150" y="550" as="sourcePoint" />
            <mxPoint x="2200" y="500" as="targetPoint" />
          </mxGeometry>
        </mxCell>
      </root>
    </mxGraphModel>
  </diagram>
</mxfile>
